<svg width="35" height="34" viewBox="0 0 35 34" fill="none" xmlns="http://www.w3.org/2000/svg">
<path d="M23.1468 17.0002C23.1468 16.2835 22.5702 15.7168 21.8411 15.7168H11.6666V7.7335C11.6666 3.65016 15.0412 0.333496 19.1787 0.333496H27.4539C31.6085 0.333496 35 3.65016 35 7.75016V26.2668C35 30.3502 31.6255 33.6668 27.4709 33.6668H19.2127C15.0412 33.6668 11.6666 30.3335 11.6666 26.2502V18.2835H21.8411C22.5702 18.2835 23.1468 17.7002 23.1468 17.0002" fill="#130F26"/>
<path d="M0.749624 16.0838L5.61629 11.2338C6.11629 10.7338 6.93296 10.7338 7.43296 11.2504C7.93296 11.7504 7.93296 12.5671 7.43296 13.0671L4.76629 15.7171H11.6663V18.2838H4.76629L7.43296 20.9338C7.93296 21.4338 7.93296 22.2504 7.43296 22.7504C7.18296 23.0004 6.84962 23.1338 6.51629 23.1338C6.19962 23.1338 5.86629 23.0004 5.61629 22.7504L0.749624 17.9004C0.499624 17.6671 0.366291 17.3338 0.366291 17.0004C0.366291 16.6504 0.499624 16.3338 0.749624 16.0838" fill="#130F26"/>
</svg>
