<svg width="12" height="12" viewBox="0 0 12 12" fill="none" xmlns="http://www.w3.org/2000/svg">
<g clip-path="url(#clip0_934_1803)">
<path d="M11.234 2.1666C11.234 2.08249 11.2118 1.99987 11.1695 1.92715C11.1273 1.85443 11.0665 1.79421 10.9934 1.75262C10.9203 1.71103 10.8374 1.68956 10.7533 1.69039C10.6692 1.69123 10.5868 1.71434 10.5146 1.75737C10.2359 1.92327 9.93578 2.05032 9.62267 2.13499C9.17552 1.75129 8.60522 1.54133 8.01601 1.54347C7.36961 1.54422 6.74881 1.79614 6.28468 2.24604C5.82055 2.69593 5.54943 3.3086 5.52856 3.95465C4.25427 3.75145 3.09934 3.08633 2.28402 2.08615C2.23489 2.02655 2.17215 1.97963 2.10109 1.94936C2.03003 1.91909 1.95274 1.90635 1.87572 1.91222C1.79875 1.91856 1.72448 1.94355 1.65934 1.98504C1.59419 2.02652 1.54013 2.08325 1.50183 2.15032C1.30542 2.49308 1.19261 2.87734 1.17257 3.27189C1.15253 3.66644 1.22583 4.06015 1.38651 4.42105L1.38558 4.42198C1.31336 4.46646 1.25376 4.52872 1.21248 4.60281C1.1712 4.67691 1.14962 4.76035 1.14981 4.84516C1.14893 4.91513 1.15313 4.98507 1.16236 5.05443C1.211 5.6536 1.47654 6.21445 1.9092 6.63181C1.87985 6.68772 1.86194 6.74893 1.85651 6.81184C1.85108 6.87476 1.85824 6.93813 1.87758 6.99825C2.0662 7.58594 2.46734 8.08209 3.00249 8.38962C2.45879 8.59986 1.87173 8.67316 1.29303 8.60307C1.18593 8.58963 1.07743 8.61299 0.985343 8.66932C0.893256 8.72565 0.823047 8.8116 0.786232 8.91307C0.749417 9.01455 0.748182 9.12553 0.78273 9.2278C0.817278 9.33007 0.885557 9.41756 0.976368 9.47592C1.97165 10.117 3.1305 10.4578 4.31435 10.4576C5.65686 10.4727 6.96672 10.0437 8.04018 9.23735C9.11364 8.43099 9.89052 7.29246 10.25 5.99889C10.4181 5.43538 10.5039 4.85054 10.5048 4.26249C10.5048 4.23133 10.5048 4.19924 10.5044 4.16716C10.753 3.89903 10.9456 3.58397 11.0709 3.24044C11.1962 2.89692 11.2516 2.53184 11.234 2.1666ZM9.65939 3.69608C9.58074 3.7891 9.54093 3.90884 9.54824 4.03044C9.5529 4.10901 9.55243 4.18806 9.55243 4.26249C9.55145 4.75941 9.47862 5.25358 9.33619 5.72966C9.04262 6.83032 8.38817 7.80063 7.47766 8.48518C6.56715 9.16973 5.45325 9.52892 4.31435 9.50523C3.90525 9.50536 3.49755 9.45729 3.0997 9.36201C3.60703 9.19851 4.08141 8.94644 4.50083 8.61749C4.57808 8.55667 4.63462 8.47343 4.66268 8.3792C4.69075 8.28497 4.68896 8.18436 4.65758 8.09118C4.6262 7.998 4.56675 7.91682 4.48739 7.85877C4.40804 7.80072 4.31266 7.76865 4.21435 7.76695C3.81856 7.7608 3.44061 7.60125 3.16013 7.32192C3.23128 7.30843 3.30197 7.29169 3.37219 7.2717C3.47505 7.24242 3.56506 7.17937 3.62774 7.09271C3.69041 7.00606 3.7221 6.90083 3.7177 6.79397C3.71329 6.68711 3.67306 6.58485 3.60347 6.50364C3.53387 6.42243 3.43898 6.367 3.33405 6.34629C3.10431 6.30092 2.88812 6.20317 2.7023 6.06066C2.51647 5.91815 2.36602 5.7347 2.26262 5.52458C2.34869 5.53632 2.4353 5.54362 2.52211 5.54643C2.62525 5.54799 2.7262 5.51671 2.81038 5.4571C2.89457 5.3975 2.95761 5.31266 2.9904 5.21487C3.02181 5.11618 3.0202 5.00995 2.98579 4.91226C2.95138 4.81458 2.88606 4.73078 2.79973 4.67357C2.59028 4.53404 2.41871 4.34473 2.30038 4.1226C2.18205 3.90047 2.12067 3.65247 2.12172 3.40079C2.12172 3.36917 2.12265 3.33755 2.12451 3.30639C3.19178 4.30175 4.57609 4.88851 6.03356 4.96329C6.10713 4.96619 6.18039 4.95233 6.24782 4.92277C6.31525 4.8932 6.37508 4.8487 6.42279 4.79263C6.47002 4.73601 6.50346 4.6692 6.52048 4.59746C6.53751 4.52573 6.53764 4.45102 6.52089 4.37922C6.49365 4.26558 6.47976 4.14916 6.4795 4.0323C6.47993 3.62494 6.64195 3.23438 6.93 2.94633C7.21805 2.65828 7.60861 2.49627 8.01597 2.49584C8.22556 2.49528 8.43299 2.53817 8.62516 2.62181C8.81734 2.70546 8.99009 2.82803 9.1325 2.9818C9.18743 3.04088 9.25655 3.08494 9.33331 3.10977C9.41006 3.1346 9.4919 3.13937 9.57102 3.12365C9.76663 3.08558 9.95944 3.03431 10.1481 2.97019C10.0194 3.23351 9.85496 3.47779 9.65939 3.69608Z" fill="#0D0F17"/>
</g>
<defs>
<clipPath id="clip0_934_1803">
<rect width="11.4286" height="11.4286" fill="white" transform="translate(0.285767 0.285645)"/>
</clipPath>
</defs>
</svg>
