<svg width="25" height="24" viewBox="0 0 25 24" fill="none" xmlns="http://www.w3.org/2000/svg">
<g clip-path="url(#clip0_187_4488)">
<path d="M19.0496 12.7504C19.0833 16.3824 22.2358 17.5911 22.2707 17.6065C22.2441 17.6917 21.767 19.3288 20.6099 21.0199C19.6095 22.482 18.5714 23.9386 16.9359 23.9688C15.3289 23.9984 14.8122 23.0159 12.9749 23.0159C11.1382 23.0159 10.5641 23.9386 9.04289 23.9984C7.46426 24.0582 6.2621 22.4175 5.25352 20.9608C3.19252 17.9811 1.61749 12.5409 3.73236 8.86873C4.78298 7.0451 6.66052 5.8903 8.69842 5.86069C10.2486 5.83112 11.7117 6.9036 12.6594 6.9036C13.6065 6.9036 15.3845 5.61385 17.2538 5.80327C18.0363 5.83584 20.2329 6.11936 21.6433 8.18392C21.5296 8.25437 19.0224 9.71399 19.0496 12.7504ZM16.0294 3.83196C16.8676 2.81747 17.4316 1.4052 17.2778 0C16.0697 0.0485541 14.6089 0.805021 13.7423 1.81896C12.9658 2.71684 12.2857 4.15397 12.4692 5.53135C13.8157 5.63553 15.1913 4.8471 16.0294 3.83196Z" fill="black"/>
</g>
<defs>
<clipPath id="clip0_187_4488">
<rect width="24" height="24" fill="white" transform="translate(0.5)"/>
</clipPath>
</defs>
</svg>
