<svg width="25" height="24" viewBox="0 0 25 24" fill="none" xmlns="http://www.w3.org/2000/svg">
<g clip-path="url(#clip0_187_4481)">
<path d="M24.2141 12.2245C24.2141 11.2413 24.1343 10.5238 23.9616 9.77966H12.7336V14.2176H19.3242C19.1914 15.3205 18.4739 16.9815 16.8793 18.0976L16.857 18.2462L20.407 20.9964L20.653 21.0209C22.9118 18.9347 24.2141 15.8653 24.2141 12.2245Z" fill="#4285F4"/>
<path d="M12.7335 23.9176C15.9623 23.9176 18.673 22.8545 20.6529 21.0209L16.8792 18.0976C15.8693 18.8018 14.514 19.2934 12.7335 19.2934C9.57109 19.2934 6.88703 17.2074 5.93023 14.324L5.78999 14.3359L2.09857 17.1927L2.05029 17.3269C4.01683 21.2334 8.05625 23.9176 12.7335 23.9176Z" fill="#34A853"/>
<path d="M5.93041 14.3239C5.67796 13.5798 5.53185 12.7825 5.53185 11.9587C5.53185 11.1349 5.67796 10.3376 5.91713 9.59354L5.91044 9.43507L2.17276 6.53235L2.05047 6.59052C1.23997 8.21162 0.774902 10.032 0.774902 11.9587C0.774902 13.8854 1.23997 15.7058 2.05047 17.3269L5.93041 14.3239Z" fill="#FBBC05"/>
<path d="M12.7335 4.62403C14.9791 4.62403 16.4938 5.59402 17.3575 6.40461L20.7326 3.10928C18.6598 1.1826 15.9623 0 12.7335 0C8.05625 0 4.01683 2.68406 2.05029 6.59056L5.91695 9.59359C6.88703 6.7102 9.57109 4.62403 12.7335 4.62403Z" fill="#EB4335"/>
</g>
<defs>
<clipPath id="clip0_187_4481">
<rect width="24" height="24" fill="white" transform="translate(0.5)"/>
</clipPath>
</defs>
</svg>
