<svg width="12" height="12" viewBox="0 0 12 12" fill="none" xmlns="http://www.w3.org/2000/svg">
<path d="M8.54292 2.88541C8.4299 2.88541 8.31942 2.91893 8.22545 2.98171C8.13148 3.0445 8.05824 3.13375 8.01499 3.23816C7.97174 3.34258 7.96042 3.45747 7.98247 3.56832C8.00452 3.67917 8.05894 3.78099 8.13886 3.8609C8.21877 3.94082 8.32059 3.99524 8.43144 4.01729C8.54229 4.03934 8.65718 4.02802 8.7616 3.98477C8.86601 3.94152 8.95526 3.86828 9.01804 3.77431C9.08083 3.68034 9.11435 3.56986 9.11435 3.45684C9.11435 3.30529 9.05414 3.15994 8.94698 3.05278C8.83982 2.94562 8.69447 2.88541 8.54292 2.88541ZM10.7334 4.03779C10.7241 3.6427 10.6501 3.25179 10.5143 2.88065C10.3933 2.56309 10.2048 2.27554 9.96197 2.03779C9.72617 1.79371 9.43795 1.60645 9.11911 1.49017C8.74895 1.35025 8.35761 1.27456 7.96197 1.26636C7.45721 1.23779 7.2953 1.23779 6.00006 1.23779C4.70483 1.23779 4.54292 1.23779 4.03816 1.26636C3.64252 1.27456 3.25118 1.35025 2.88102 1.49017C2.56277 1.60763 2.27479 1.79473 2.03816 2.03779C1.79408 2.27359 1.60681 2.56181 1.49054 2.88065C1.35062 3.25081 1.27493 3.64215 1.26673 4.03779C1.23816 4.54255 1.23816 4.70446 1.23816 5.9997C1.23816 7.29493 1.23816 7.45684 1.26673 7.9616C1.27493 8.35724 1.35062 8.74858 1.49054 9.11874C1.60681 9.43758 1.79408 9.7258 2.03816 9.9616C2.27479 10.2047 2.56277 10.3918 2.88102 10.5092C3.25118 10.6491 3.64252 10.7248 4.03816 10.733C4.54292 10.7616 4.70483 10.7616 6.00006 10.7616C7.2953 10.7616 7.45721 10.7616 7.96197 10.733C8.35761 10.7248 8.74895 10.6491 9.11911 10.5092C9.43795 10.3929 9.72617 10.2057 9.96197 9.9616C10.2059 9.72473 10.3945 9.43693 10.5143 9.11874C10.6501 8.7476 10.7241 8.3567 10.7334 7.9616C10.7334 7.45684 10.762 7.29493 10.762 5.9997C10.762 4.70446 10.762 4.54255 10.7334 4.03779ZM9.87625 7.90446C9.87279 8.20673 9.81804 8.50622 9.71435 8.79017C9.63832 8.99741 9.5162 9.18466 9.3572 9.33779C9.20275 9.49518 9.01588 9.61705 8.80959 9.69493C8.52563 9.79863 8.22614 9.85337 7.92387 9.85684C7.44768 9.88065 7.27149 9.88541 6.01911 9.88541C4.76673 9.88541 4.59054 9.88541 4.11435 9.85684C3.80049 9.86272 3.48797 9.81439 3.19054 9.71398C2.99329 9.63211 2.815 9.51055 2.66673 9.35684C2.50868 9.20386 2.38808 9.01645 2.31435 8.80922C2.19809 8.5212 2.13361 8.21491 2.12387 7.90446C2.12387 7.42827 2.0953 7.25208 2.0953 5.9997C2.0953 4.74732 2.0953 4.57113 2.12387 4.09494C2.12601 3.78591 2.18242 3.47967 2.29054 3.19017C2.37437 2.98918 2.50305 2.81001 2.66673 2.66636C2.8114 2.50263 2.9902 2.3726 3.19054 2.28541C3.4808 2.18067 3.78673 2.12593 4.0953 2.12351C4.57149 2.12351 4.74768 2.09494 6.00006 2.09494C7.25244 2.09494 7.42863 2.09494 7.90482 2.12351C8.2071 2.12697 8.50659 2.18172 8.79054 2.28541C9.00693 2.36572 9.20115 2.49629 9.3572 2.66636C9.51325 2.81264 9.63519 2.99147 9.71435 3.19017C9.82018 3.48014 9.87496 3.78626 9.87625 4.09494C9.90006 4.57113 9.90482 4.74732 9.90482 5.9997C9.90482 7.25208 9.90006 7.42827 9.87625 7.90446ZM6.00006 3.55684C5.51712 3.55778 5.04528 3.70185 4.64418 3.97085C4.24309 4.23984 3.93072 4.6217 3.74656 5.06815C3.56239 5.51461 3.51469 6.00563 3.60949 6.47919C3.70428 6.95274 3.93732 7.38757 4.27915 7.72873C4.62098 8.0699 5.05626 8.30208 5.53 8.39596C6.00373 8.48983 6.49467 8.44118 6.94076 8.25614C7.38686 8.07111 7.7681 7.758 8.03631 7.35638C8.30453 6.95476 8.44768 6.48265 8.44768 5.9997C8.44831 5.67832 8.3854 5.35999 8.26256 5.06301C8.13972 4.76603 7.95938 4.49627 7.73191 4.26925C7.50443 4.04222 7.23432 3.8624 6.93711 3.74014C6.63989 3.61788 6.32144 3.55558 6.00006 3.55684ZM6.00006 7.58541C5.68644 7.58541 5.37986 7.49241 5.11909 7.31817C4.85832 7.14393 4.65507 6.89627 4.53505 6.60652C4.41504 6.31677 4.38363 5.99794 4.44482 5.69034C4.506 5.38274 4.65703 5.10019 4.87879 4.87843C5.10056 4.65666 5.38311 4.50564 5.69071 4.44445C5.9983 4.38327 6.31714 4.41467 6.60689 4.53469C6.89664 4.65471 7.1443 4.85795 7.31854 5.11872C7.49278 5.37949 7.58578 5.68607 7.58578 5.9997C7.58578 6.20794 7.54476 6.41414 7.46507 6.60652C7.38538 6.79891 7.26858 6.97372 7.12133 7.12097C6.97409 7.26821 6.79928 7.38502 6.60689 7.46471C6.4145 7.5444 6.2083 7.58541 6.00006 7.58541Z" fill="#0D0F17"/>
</svg>
