<svg width="16" height="16" viewBox="0 0 16 16" fill="none" xmlns="http://www.w3.org/2000/svg">
<path d="M11.56 3.63998C11.4018 3.63998 11.2471 3.6869 11.1156 3.7748C10.984 3.86271 10.8815 3.98765 10.8209 4.13383C10.7604 4.28001 10.7445 4.44087 10.7754 4.59605C10.8063 4.75124 10.8825 4.89378 10.9944 5.00566C11.1062 5.11755 11.2488 5.19374 11.404 5.22461C11.5592 5.25548 11.72 5.23963 11.8662 5.17908C12.0124 5.11853 12.1373 5.016 12.2252 4.88444C12.3131 4.75288 12.36 4.5982 12.36 4.43998C12.36 4.22781 12.2758 4.02432 12.1257 3.87429C11.9757 3.72427 11.7722 3.63998 11.56 3.63998ZM14.6267 5.25331C14.6137 4.70018 14.5101 4.15291 14.32 3.63331C14.1505 3.18873 13.8867 2.78617 13.5467 2.45331C13.2166 2.1116 12.8131 1.84943 12.3667 1.68665C11.8485 1.49075 11.3006 1.38479 10.7467 1.37331C10.04 1.33331 9.81337 1.33331 8.00004 1.33331C6.18671 1.33331 5.96004 1.33331 5.25337 1.37331C4.69948 1.38479 4.1516 1.49075 3.63337 1.68665C3.18782 1.85108 2.78466 2.11302 2.45337 2.45331C2.11166 2.78343 1.84949 3.18694 1.68671 3.63331C1.49081 4.15154 1.38485 4.69941 1.37337 5.25331C1.33337 5.95998 1.33337 6.18665 1.33337 7.99998C1.33337 9.81331 1.33337 10.04 1.37337 10.7466C1.38485 11.3005 1.49081 11.8484 1.68671 12.3666C1.84949 12.813 2.11166 13.2165 2.45337 13.5466C2.78466 13.8869 3.18782 14.1489 3.63337 14.3133C4.1516 14.5092 4.69948 14.6152 5.25337 14.6266C5.96004 14.6666 6.18671 14.6666 8.00004 14.6666C9.81337 14.6666 10.04 14.6666 10.7467 14.6266C11.3006 14.6152 11.8485 14.5092 12.3667 14.3133C12.8131 14.1505 13.2166 13.8884 13.5467 13.5466C13.8882 13.215 14.1523 12.8121 14.32 12.3666C14.5101 11.847 14.6137 11.2998 14.6267 10.7466C14.6267 10.04 14.6667 9.81331 14.6667 7.99998C14.6667 6.18665 14.6667 5.95998 14.6267 5.25331ZM13.4267 10.6666C13.4219 11.0898 13.3452 11.5091 13.2 11.9066C13.0936 12.1968 12.9226 12.4589 12.7 12.6733C12.4838 12.8937 12.2222 13.0643 11.9334 13.1733C11.5358 13.3185 11.1166 13.3951 10.6934 13.4C10.0267 13.4333 9.78004 13.44 8.02671 13.44C6.27337 13.44 6.02671 13.44 5.36004 13.4C4.92063 13.4082 4.4831 13.3405 4.06671 13.2C3.79056 13.0854 3.54094 12.9152 3.33337 12.7C3.1121 12.4858 2.94327 12.2234 2.84004 11.9333C2.67728 11.5301 2.587 11.1013 2.57337 10.6666C2.57337 9.99998 2.53337 9.75331 2.53337 7.99998C2.53337 6.24665 2.53337 5.99998 2.57337 5.33331C2.57636 4.90068 2.65534 4.47194 2.80671 4.06665C2.92407 3.78525 3.10422 3.53442 3.33337 3.33331C3.53592 3.10409 3.78623 2.92204 4.06671 2.79998C4.47307 2.65334 4.90137 2.5767 5.33337 2.57331C6.00004 2.57331 6.24671 2.53331 8.00004 2.53331C9.75337 2.53331 10 2.53331 10.6667 2.57331C11.0899 2.57817 11.5092 2.65481 11.9067 2.79998C12.2097 2.91241 12.4816 3.09521 12.7 3.33331C12.9185 3.5381 13.0892 3.78847 13.2 4.06665C13.3482 4.4726 13.4249 4.90117 13.4267 5.33331C13.46 5.99998 13.4667 6.24665 13.4667 7.99998C13.4667 9.75331 13.46 9.99998 13.4267 10.6666ZM8.00004 4.57998C7.32391 4.5813 6.66335 4.783 6.10181 5.15959C5.54027 5.53619 5.10296 6.07078 4.84513 6.69582C4.5873 7.32085 4.52052 8.00829 4.65324 8.67127C4.78595 9.33424 5.1122 9.943 5.59076 10.4206C6.06932 10.8983 6.67871 11.2233 7.34195 11.3547C8.00518 11.4862 8.69248 11.418 9.31702 11.159C9.94155 10.9 10.4753 10.4616 10.8508 9.89933C11.2263 9.33706 11.4267 8.67611 11.4267 7.99998C11.4276 7.55005 11.3395 7.10438 11.1675 6.68862C10.9956 6.27285 10.7431 5.89519 10.4246 5.57735C10.1062 5.25951 9.72801 5.00776 9.3119 4.8366C8.8958 4.66543 8.44997 4.57822 8.00004 4.57998ZM8.00004 10.22C7.56097 10.22 7.13175 10.0898 6.76667 9.84584C6.4016 9.6019 6.11705 9.25519 5.94903 8.84954C5.781 8.44388 5.73704 7.99752 5.8227 7.56688C5.90836 7.13624 6.11979 6.74067 6.43026 6.4302C6.74074 6.11973 7.1363 5.9083 7.56694 5.82264C7.99758 5.73698 8.44395 5.78094 8.8496 5.94897C9.25525 6.11699 9.60197 6.40154 9.8459 6.76661C10.0898 7.13169 10.22 7.5609 10.22 7.99998C10.22 8.29151 10.1626 8.58019 10.0511 8.84954C9.93949 9.11888 9.77596 9.36361 9.56982 9.56976C9.36367 9.7759 9.11894 9.93943 8.8496 10.051C8.58025 10.1626 8.29157 10.22 8.00004 10.22Z" fill="white"/>
</svg>
