<svg width="16" height="16" viewBox="0 0 16 16" fill="none" xmlns="http://www.w3.org/2000/svg">
<path d="M15.3274 2.63345C15.3275 2.5157 15.2964 2.40002 15.2372 2.29821C15.1781 2.1964 15.093 2.11209 14.9906 2.05387C14.8883 1.99565 14.7723 1.96559 14.6545 1.96676C14.5368 1.96793 14.4215 2.00028 14.3203 2.06053C13.9301 2.29279 13.51 2.47065 13.0716 2.5892C12.4456 2.05202 11.6472 1.75807 10.8223 1.76107C9.91734 1.76211 9.04821 2.1148 8.39843 2.74466C7.74865 3.37452 7.36908 4.23224 7.33987 5.13672C5.55585 4.85223 3.93895 3.92107 2.7975 2.52082C2.72872 2.43737 2.64089 2.37169 2.54141 2.32931C2.44192 2.28694 2.33371 2.2691 2.22589 2.27732C2.11813 2.28619 2.01415 2.32118 1.92295 2.37926C1.83175 2.43734 1.75606 2.51676 1.70245 2.61065C1.42746 3.09053 1.26953 3.62849 1.24148 4.18085C1.21342 4.73322 1.31604 5.28442 1.54099 5.78968L1.53969 5.79098C1.43858 5.85325 1.35515 5.94042 1.29736 6.04415C1.23956 6.14788 1.20935 6.2647 1.20961 6.38344C1.20838 6.48139 1.21426 6.5793 1.22719 6.6764C1.29528 7.51525 1.66704 8.30044 2.27276 8.88474C2.23167 8.96302 2.20659 9.04871 2.19899 9.13679C2.19139 9.22488 2.20141 9.31359 2.22849 9.39776C2.49256 10.2205 3.05415 10.9151 3.80336 11.3457C3.04219 11.64 2.22031 11.7426 1.41013 11.6445C1.26017 11.6257 1.10828 11.6584 0.979358 11.7373C0.850437 11.8161 0.752144 11.9364 0.700603 12.0785C0.649062 12.2206 0.647333 12.3759 0.6957 12.5191C0.744067 12.6623 0.839658 12.7848 0.966793 12.8665C2.36019 13.7639 3.98258 14.2411 5.63997 14.2409C7.51948 14.262 9.35328 13.6614 10.8561 12.5325C12.359 11.4036 13.4466 9.80966 13.9498 7.99865C14.1852 7.20974 14.3054 6.39096 14.3066 5.56769C14.3066 5.52407 14.3066 5.47915 14.306 5.43423C14.654 5.05885 14.9237 4.61777 15.0991 4.13683C15.2745 3.65589 15.3521 3.14478 15.3274 2.63345ZM13.123 4.77472C13.0129 4.90495 12.9572 5.07259 12.9674 5.24282C12.9739 5.35282 12.9733 5.46349 12.9733 5.56769C12.9719 6.26338 12.8699 6.95522 12.6705 7.62173C12.2595 9.16266 11.3433 10.5211 10.0686 11.4795C8.79389 12.4378 7.23443 12.9407 5.63997 12.9075C5.06722 12.9077 4.49645 12.8404 3.93945 12.707C4.64973 12.4781 5.31385 12.1252 5.90104 11.6647C6.00919 11.5795 6.08834 11.463 6.12763 11.3311C6.16692 11.1992 6.16443 11.0583 6.12049 10.9279C6.07655 10.7974 5.99332 10.6838 5.88223 10.6025C5.77113 10.5212 5.6376 10.4763 5.49997 10.4739C4.94586 10.4653 4.41673 10.242 4.02406 9.8509C4.12367 9.83202 4.22263 9.80858 4.32094 9.78058C4.46495 9.73959 4.59097 9.65133 4.67871 9.53001C4.76646 9.40869 4.81082 9.26136 4.80465 9.11176C4.79849 8.96216 4.74216 8.81899 4.64473 8.7053C4.5473 8.59161 4.41444 8.51401 4.26755 8.48501C3.94591 8.42149 3.64325 8.28465 3.3831 8.08513C3.12294 7.88561 2.9123 7.62879 2.76755 7.33462C2.88804 7.35106 3.00929 7.36128 3.13083 7.36522C3.27522 7.3674 3.41656 7.3236 3.53442 7.24015C3.65227 7.15671 3.74053 7.03794 3.78643 6.90102C3.83042 6.76287 3.82816 6.61413 3.77999 6.47738C3.73182 6.34062 3.64037 6.2233 3.51951 6.14321C3.22627 5.94786 2.98607 5.68282 2.82041 5.37185C2.65475 5.06087 2.56881 4.71366 2.57029 4.36132C2.57029 4.31705 2.57159 4.27278 2.57419 4.22916C4.06837 5.62266 6.00641 6.44412 8.04686 6.54882C8.14986 6.55288 8.25243 6.53348 8.34683 6.49208C8.44123 6.45069 8.52499 6.38839 8.59179 6.30988C8.65791 6.23062 8.70472 6.13709 8.72856 6.03666C8.75239 5.93622 8.75258 5.83163 8.72912 5.73111C8.69099 5.57202 8.67155 5.40903 8.67118 5.24543C8.67179 4.67512 8.89861 4.12834 9.30188 3.72507C9.70515 3.32181 10.2519 3.09499 10.8222 3.09438C11.1157 3.0936 11.4061 3.15365 11.6751 3.27075C11.9442 3.38785 12.186 3.55945 12.3854 3.77472C12.4623 3.85745 12.5591 3.91912 12.6665 3.95388C12.774 3.98864 12.8885 3.99533 12.9993 3.97332C13.2732 3.92002 13.5431 3.84824 13.8073 3.75848C13.6271 4.12713 13.3968 4.46911 13.123 4.77472Z" fill="white"/>
</svg>
