<svg width="36" height="23" viewBox="0 0 36 23" fill="none" xmlns="http://www.w3.org/2000/svg">
<path d="M32.0824 0.0476074C32.2027 0.0476074 32.3235 0.0476075 32.4438 0.0484669C32.5453 0.0490138 32.6469 0.0504587 32.7484 0.0530368C32.9691 0.0590134 33.1922 0.0719434 33.4111 0.111006C33.63 0.148118 33.8422 0.217409 34.0409 0.316631C34.4397 0.518115 34.7639 0.839795 34.967 1.23538C35.0673 1.43215 35.1372 1.64298 35.1743 1.86069C35.2139 2.07757 35.2267 2.29866 35.2326 2.518C35.2354 2.61851 35.2369 2.71917 35.2373 2.8198C35.2381 2.93933 35.2381 3.05886 35.2381 3.17858V19.2978C35.2381 19.4175 35.2381 19.5368 35.2373 19.6567C35.237 19.7574 35.2354 19.8581 35.2326 19.9587C35.2267 20.1775 35.2139 20.3988 35.1743 20.6156C35.135 20.8359 35.0698 21.0407 34.9669 21.2408C34.7629 21.6371 34.4388 21.9587 34.0409 22.1595C33.8423 22.2591 33.6301 22.3286 33.4111 22.3658C33.1922 22.4046 32.9691 22.4176 32.7484 22.4236C32.6464 22.4258 32.5451 22.4273 32.4438 22.4277C32.3235 22.4286 32.2027 22.4286 32.0824 22.4286H3.1557C3.03524 22.4286 2.91453 22.4286 2.79426 22.4277C2.6927 22.4271 2.59141 22.4258 2.48984 22.4235C2.26855 22.4176 2.04547 22.4046 1.8273 22.3658C1.6052 22.3264 1.39879 22.2615 1.19707 22.1595C0.998973 22.0598 0.817906 21.9293 0.660586 21.773C0.503398 21.6173 0.371895 21.4377 0.270977 21.2408C0.17086 21.044 0.100974 20.8332 0.0636719 20.6156C0.024336 20.3988 0.0110938 20.1775 0.00507817 19.9587C0.00238285 19.8579 0.00109379 19.7572 0.000468791 19.6567C4.05271e-08 19.5368 0 19.4175 0 19.2978V3.17839C0 3.05866 4.05271e-08 2.93913 0.000468791 2.82003C0.000976603 2.71925 0.00250004 2.61862 0.00507817 2.518C0.0110938 2.29866 0.0241016 2.07757 0.0636719 1.86069C0.10104 1.64302 0.171006 1.43223 0.271211 1.23542C0.474962 0.838939 0.799184 0.517275 1.19727 0.31667C1.39592 0.217382 1.60816 0.148012 1.82711 0.11081C2.04547 0.0719432 2.26855 0.0588185 2.48984 0.0528419C2.59141 0.0501466 2.6927 0.0490915 2.79426 0.0482321C2.91453 0.0476071 3.03524 0.0476074 3.1557 0.0476074H32.0824ZM32.0824 0.793584H3.1557L2.79867 0.794248C2.70262 0.794639 2.60652 0.796162 2.51051 0.798506C2.34137 0.803076 2.1441 0.812178 1.95996 0.844912C1.81341 0.86912 1.6713 0.915125 1.53836 0.981397C1.41072 1.04575 1.29405 1.12986 1.19266 1.23062C1.09121 1.33077 1.00642 1.44648 0.941485 1.57339C0.874617 1.70508 0.828212 1.84619 0.803867 1.99187C0.77043 2.1755 0.761289 2.37093 0.75668 2.53827C0.75418 2.63378 0.752773 2.72929 0.752383 2.82483L0.751953 3.10464V19.3721L0.752578 19.6524C0.753008 19.7478 0.754414 19.8432 0.756875 19.9386C0.761094 20.1054 0.77043 20.3009 0.803672 20.4832C0.827987 20.6291 0.874378 20.7704 0.94125 20.9023C1.00609 21.0292 1.09074 21.1449 1.19203 21.2452C1.2932 21.346 1.40974 21.4301 1.5373 21.4944C1.67059 21.5611 1.81313 21.6074 1.96016 21.6317C2.14617 21.6646 2.3518 21.6739 2.51027 21.6781C2.60602 21.6803 2.70184 21.6815 2.79762 21.6819C2.91691 21.6828 3.03395 21.6828 3.15109 21.6828H32.0824C32.2009 21.6828 32.3196 21.6828 32.4377 21.6819C32.5372 21.6815 32.6341 21.68 32.7314 21.678C32.8861 21.6737 33.0918 21.6647 33.2794 21.6315C33.4375 21.6032 33.5712 21.5598 33.699 21.4953C33.9561 21.366 34.1654 21.1583 34.2968 20.9023C34.3636 20.7711 34.4099 20.6305 34.434 20.4853C34.4673 20.3028 34.4764 20.1065 34.4811 19.9384C34.4836 19.8434 34.4849 19.7483 34.4853 19.6533C34.4862 19.5333 34.4862 19.4158 34.4862 19.298V3.17858C34.4862 3.06081 34.4862 2.94327 34.4851 2.82565C34.4849 2.72858 34.4836 2.63347 34.4809 2.53851C34.4764 2.37011 34.4673 2.17394 34.4345 1.99347C34.4057 1.83358 34.3623 1.70136 34.2972 1.57468C34.1661 1.31872 33.9571 1.11109 33.7002 0.981826C33.5717 0.916748 33.4375 0.873389 33.2779 0.844912C33.0939 0.812139 32.8968 0.803115 32.728 0.798506C32.6315 0.796109 32.5349 0.794676 32.4384 0.794209L32.0824 0.793584ZM9.26258 7.60265C8.9532 7.96304 8.4627 8.24855 7.97172 8.2064C7.90793 7.71909 8.1534 7.20054 8.43071 6.88292C8.73988 6.51175 9.27344 6.24718 9.7107 6.22562C9.76406 6.73417 9.56141 7.23202 9.26258 7.60265ZM9.70516 8.30159H9.70492C9.98168 8.32269 10.7796 8.40722 11.2904 9.15667C11.2478 9.18843 10.3434 9.70589 10.354 10.7938C10.3646 12.0927 11.5028 12.5258 11.5135 12.5364C11.5028 12.5681 11.3331 13.149 10.918 13.7509C10.5563 14.279 10.1837 14.7964 9.58809 14.8069C9.01348 14.8175 8.82188 14.469 8.16254 14.469C7.50293 14.469 7.29027 14.7964 6.74746 14.8175C6.17305 14.8384 5.73707 14.2576 5.37531 13.7296C4.63016 12.663 4.06648 10.7198 4.8325 9.41019C5.20504 8.75546 5.88582 8.34363 6.61969 8.33304C7.18367 8.32269 7.70508 8.70288 8.04563 8.70288C8.3861 8.70288 8.99195 8.25933 9.70516 8.30159ZM16.8127 6.82968C18.3622 6.82968 19.4413 7.88933 19.4413 9.43198C19.4413 10.9802 18.34 12.0454 16.774 12.0454H15.0586V14.7523H13.8191V6.82968H16.8127H16.8127ZM15.0586 11.0132H16.4807C17.56 11.0132 18.174 10.4368 18.174 9.43753C18.174 8.43851 17.5598 7.8673 16.4861 7.8673H15.0586V11.0132ZM19.7488 13.1105C19.7488 12.0948 20.5291 11.5128 21.9677 11.425L23.5116 11.3316V10.8924C23.5116 10.2502 23.0857 9.89878 22.3275 9.89878C21.702 9.89878 21.2482 10.2171 21.1545 10.7056H20.0364C20.0698 9.67913 21.0436 8.93253 22.3608 8.93253C23.7774 8.93253 24.7015 9.66816 24.7015 10.8102V14.7521H23.5561V13.8023H23.5284C23.2019 14.4225 22.4823 14.8123 21.702 14.8123C20.5511 14.8123 19.7488 14.1317 19.7488 13.1105ZM23.5117 12.6V12.1552L22.1338 12.2431C21.3588 12.2925 20.9553 12.5778 20.9553 13.0774C20.9553 13.5606 21.3757 13.8736 22.0342 13.8736C22.8751 13.8736 23.5116 13.341 23.5116 12.6H23.5117ZM25.7546 16.8711V15.9215C25.8322 15.9323 26.0201 15.9432 26.1198 15.9432C26.6676 15.9432 26.9775 15.713 27.1657 15.1197L27.2764 14.7685L25.179 9.0039H26.4738L27.9348 13.6814H27.9626L29.4234 9.0039H30.6852L28.5104 15.0594C28.0122 16.4485 27.4423 16.9044 26.236 16.9044C26.1418 16.9044 25.8374 16.8934 25.7546 16.8712V16.8711Z" fill="black"/>
</svg>
