<svg width="24" height="24" viewBox="0 0 24 24" fill="none" xmlns="http://www.w3.org/2000/svg">
<g clip-path="url(#clip0_304_4878)">
<path d="M13.6017 11.9999L18.6331 7.09087C18.8247 6.90406 18.9327 6.64772 18.9327 6.38014C18.9327 6.11255 18.8247 5.85622 18.6331 5.6694L13.1117 0.282343C12.8258 0.00339018 12.4006 -0.0768309 12.0325 0.0778733C11.6644 0.233019 11.425 0.593627 11.425 0.993078V9.87632L6.75402 5.31906C6.36141 4.93605 5.73277 4.94366 5.34965 5.33627C4.96664 5.72888 4.97437 6.35763 5.36698 6.74064L10.7575 12L5.36698 17.2594C4.97437 17.6424 4.96664 18.2712 5.34965 18.6638C5.73266 19.0564 6.36152 19.0641 6.75402 18.681L11.425 14.1237V23.007C11.425 23.4064 11.6644 23.767 12.0325 23.9222C12.157 23.9747 12.2879 24.0001 12.4179 24.0001C12.6723 24.0001 12.9224 23.9023 13.1117 23.7177L18.6331 18.3306C18.8247 18.1438 18.9327 17.8875 18.9327 17.6199C18.9327 17.3523 18.8247 17.096 18.6331 16.9092L13.6017 11.9999ZM13.4114 3.34939L16.5176 6.38003L13.4114 9.41066V3.34939ZM13.4114 20.6503V14.5891L16.5176 17.6197L13.4114 20.6503Z" fill="white"/>
</g>
<defs>
<clipPath id="clip0_304_4878">
<rect width="24" height="24" fill="white"/>
</clipPath>
</defs>
</svg>
