<svg width="18" height="24" viewBox="0 0 18 24" fill="none" xmlns="http://www.w3.org/2000/svg">
<path d="M2.06258 8.43742L3.62258 8.70742L4.34483 17.3122C4.40258 18.0149 4.98983 18.5542 5.69483 18.5519H13.8766C14.5493 18.5534 15.1201 18.0584 15.2153 17.3924L15.9271 12.4739C16.0066 11.9242 15.6248 11.4142 15.0758 11.3347C15.0278 11.3279 3.87308 11.3242 3.87308 11.3242" stroke="#130F26" stroke-width="1.5" stroke-linecap="round" stroke-linejoin="round"/>
<path d="M10.5938 14.0961H12.6736" stroke="#130F26" stroke-width="1.5" stroke-linecap="round" stroke-linejoin="round"/>
<path fill-rule="evenodd" clip-rule="evenodd" d="M5.36579 21.1519C5.59154 21.1519 5.77379 21.3349 5.77379 21.5599C5.77379 21.7856 5.59154 21.9686 5.36579 21.9686C5.14004 21.9686 4.95779 21.7856 4.95779 21.5599C4.95779 21.3349 5.14004 21.1519 5.36579 21.1519Z" fill="#130F26" stroke="#130F26" stroke-width="1.5" stroke-linecap="round" stroke-linejoin="round"/>
<path fill-rule="evenodd" clip-rule="evenodd" d="M13.826 21.1519C14.0518 21.1519 14.2348 21.3349 14.2348 21.5599C14.2348 21.7856 14.0518 21.9686 13.826 21.9686C13.6003 21.9686 13.418 21.7856 13.418 21.5599C13.418 21.3349 13.6003 21.1519 13.826 21.1519Z" fill="#130F26" stroke="#130F26" stroke-width="1.5" stroke-linecap="round" stroke-linejoin="round"/>
<path d="M13.2168 8.87695C11.207 8.87695 10 7.17188 10 4.44141V4.42969C10 1.69922 11.207 0 13.2168 0C15.2266 0 16.4453 1.69922 16.4453 4.42969V4.44141C16.4453 7.17188 15.2266 8.87695 13.2168 8.87695ZM13.2168 7.65234C14.2949 7.65234 14.9219 6.44531 14.9219 4.44141V4.42969C14.9219 2.42578 14.2949 1.23047 13.2168 1.23047C12.1387 1.23047 11.5234 2.42578 11.5234 4.42969V4.44141C11.5234 6.44531 12.1387 7.65234 13.2168 7.65234Z" fill="#130F26"/>
</svg>
