<svg width="18" height="18" viewBox="0 0 18 18" fill="none" xmlns="http://www.w3.org/2000/svg">
<path d="M1.29199 1.70825L3.02533 2.00825L3.82783 11.5691C3.89199 12.3499 4.54449 12.9491 5.32783 12.9466H14.4187C15.1662 12.9483 15.8003 12.3983 15.9062 11.6583L16.697 6.19325C16.7853 5.58242 16.3612 5.01575 15.7512 4.92742C15.6978 4.91992 3.30366 4.91575 3.30366 4.91575" stroke="black" stroke-width="1.5" stroke-linecap="round" stroke-linejoin="round"/>
<path d="M10.7715 7.99566H13.0823" stroke="black" stroke-width="1.5" stroke-linecap="round" stroke-linejoin="round"/>
<path fill-rule="evenodd" clip-rule="evenodd" d="M4.96212 15.8354C5.21296 15.8354 5.41546 16.0388 5.41546 16.2888C5.41546 16.5396 5.21296 16.7429 4.96212 16.7429C4.71129 16.7429 4.50879 16.5396 4.50879 16.2888C4.50879 16.0388 4.71129 15.8354 4.96212 15.8354Z" fill="#130F26" stroke="#130F26" stroke-width="1.5" stroke-linecap="round" stroke-linejoin="round"/>
<path fill-rule="evenodd" clip-rule="evenodd" d="M14.3625 15.8354C14.6133 15.8354 14.8167 16.0388 14.8167 16.2888C14.8167 16.5396 14.6133 16.7429 14.3625 16.7429C14.1117 16.7429 13.9092 16.5396 13.9092 16.2888C13.9092 16.0388 14.1117 15.8354 14.3625 15.8354Z" fill="#130F26" stroke="#130F26" stroke-width="1.5" stroke-linecap="round" stroke-linejoin="round"/>
</svg>
