<svg width="34" height="34" viewBox="0 0 34 34" fill="none" xmlns="http://www.w3.org/2000/svg">
<path fill-rule="evenodd" clip-rule="evenodd" d="M33.8333 17.0252C33.8333 8.24536 26.8166 0.333496 17.1333 0.333496C7.66665 0.333496 0.499977 8.09514 0.499977 16.9751C0.499977 27.2739 8.89998 33.6668 17.1666 33.6668C19.9 33.6668 22.9333 32.9324 25.3666 31.4969C26.2166 30.9795 26.9333 30.5956 27.85 30.896L31.2166 31.8975C32.0666 32.1646 32.8333 31.4969 32.5833 30.5956L31.4666 26.8566C31.2833 26.3392 31.3166 25.7883 31.5833 25.3544C33.0166 22.7171 33.8333 19.8294 33.8333 17.0252ZM19.3333 17.0252C19.3333 18.2103 18.3833 19.1617 17.2 19.1784C16.0166 19.1784 15.0666 18.2103 15.0666 17.0419C15.0666 15.8568 16.0166 14.9054 17.2 14.9054C18.3666 14.8887 19.3333 15.8568 19.3333 17.0252ZM11.65 17.0419C11.65 18.2103 10.7 19.1784 9.51665 19.1784C8.33331 19.1784 7.38331 18.2103 7.38331 17.0419C7.38331 15.8568 8.33331 14.9054 9.51665 14.9054C10.7 14.9054 11.65 15.8568 11.65 17.0419ZM24.8833 19.1784C26.05 19.1784 27.0166 18.2103 27.0166 17.0419C27.0166 15.8568 26.0666 14.9054 24.8833 14.9054C23.7 14.9054 22.75 15.8568 22.75 17.0419C22.75 18.2103 23.7 19.1617 24.8833 19.1784Z" fill="#3864FF"/>
</svg>
