<svg width="18" height="16" viewBox="0 0 18 16" fill="none" xmlns="http://www.w3.org/2000/svg">
<path d="M7.13382 9.97226C6.65465 9.49393 6.36299 8.84393 6.36299 8.11476C6.36299 6.65393 7.53965 5.47643 8.99965 5.47643C9.72215 5.47643 10.3872 5.76893 10.858 6.24726" stroke="white" stroke-width="1.5" stroke-linecap="round" stroke-linejoin="round"/>
<path d="M11.5873 8.58234C11.394 9.65734 10.5473 10.5057 9.47315 10.7007" stroke="white" stroke-width="1.5" stroke-linecap="round" stroke-linejoin="round"/>
<path d="M4.54549 12.5602C3.22299 11.5218 2.10299 10.0052 1.29132 8.11434C2.11132 6.21518 3.23882 4.69018 4.56965 3.64351C5.89215 2.59684 7.41799 2.02851 8.99965 2.02851C10.5905 2.02851 12.1155 2.60518 13.4463 3.65934" stroke="white" stroke-width="1.5" stroke-linecap="round" stroke-linejoin="round"/>
<path d="M15.2063 5.49226C15.7797 6.25393 16.2838 7.13309 16.708 8.11393C15.0688 11.9114 12.1722 14.1989 8.99965 14.1989C8.28049 14.1989 7.57132 14.0823 6.88965 13.8548" stroke="white" stroke-width="1.5" stroke-linecap="round" stroke-linejoin="round"/>
<path d="M15.5725 1.54126L2.42749 14.6863" stroke="white" stroke-width="1.5" stroke-linecap="round" stroke-linejoin="round"/>
</svg>
