<svg width="35" height="34" viewBox="0 0 35 34" fill="none" xmlns="http://www.w3.org/2000/svg">
<path fill-rule="evenodd" clip-rule="evenodd" d="M21.8411 15.7168C22.5702 15.7168 23.1468 16.2835 23.1468 17.0002C23.1468 17.7002 22.5702 18.2835 21.8411 18.2835H11.6666V26.2502C11.6666 30.3335 15.0412 33.6668 19.2127 33.6668H27.4709C31.6255 33.6668 35 30.3502 35 26.2668V7.75016C35 3.65016 31.6085 0.333496 27.4539 0.333496H19.1787C15.0412 0.333496 11.6666 3.65016 11.6666 7.7335V15.7168H21.8411ZM5.6163 11.2338L0.749638 16.0838C0.499638 16.3338 0.366302 16.6505 0.366302 17.0005C0.366302 17.3338 0.499638 17.6672 0.749638 17.9005L5.6163 22.7505C5.8663 23.0005 6.19964 23.1338 6.5163 23.1338C6.84964 23.1338 7.18297 23.0005 7.43297 22.7505C7.93297 22.2505 7.93297 21.4338 7.43297 20.9338L4.7663 18.2838H11.6663V15.7172H4.7663L7.43297 13.0672C7.93297 12.5672 7.93297 11.7505 7.43297 11.2505C6.93297 10.7338 6.1163 10.7338 5.6163 11.2338Z" fill="#3864FF"/>
</svg>
