<svg width="1440" height="696" viewBox="0 0 1440 696" fill="none" xmlns="http://www.w3.org/2000/svg">
<path opacity="0.08" fill-rule="evenodd" clip-rule="evenodd" d="M976.699 606.083H729.477H728.446L728.696 607.083L729.311 609.537C732.516 638.343 739.735 665.669 750.872 691.141H988.85L990.58 694.595C1010.48 753.326 1068.43 795.646 1167.9 795.646C1264.78 795.646 1330.52 754.19 1330.52 691.141V689.413C1330.52 669.626 1324.78 652.703 1312.09 638.14C1293.5 682.806 1235.06 710.588 1155.75 710.588C1056.28 710.588 998.324 668.268 978.429 609.537L976.699 606.083ZM740.597 691.141H749.781C738.712 665.712 731.528 638.447 728.324 609.715L727.476 606.326L727.165 605.083H728.446H976.699H977.317L977.594 605.635L979.323 609.09L979.354 609.151L979.376 609.217C999.097 667.431 1056.58 709.588 1155.75 709.588C1204.07 709.588 1244.52 699.249 1272.85 681.136C1291.05 669.505 1304.25 654.679 1311.35 637.305C1291.19 614.785 1254.12 597.955 1195.58 584.908L1036.43 551.224C855.476 512.508 765.511 424.084 764.821 282.536C756.043 256.205 751.666 227.314 751.666 195.834V194.97C751.666 105.249 791.616 30.4659 861.379 -21.8582C931.119 -74.165 1030.61 -104 1149.7 -104C1274.85 -104 1372.17 -72.8677 1439.53 -22.5069C1506.9 27.863 1544.25 97.4373 1549.46 174.174L1549.46 174.208V174.242V177.697V178.697H1548.46H1542.1C1552.5 204.213 1558.71 231.278 1560.61 259.3V262.755H1326.2L1325.33 258.436C1311.49 207.479 1255.27 159.977 1160.98 159.977C1090.37 159.977 1036.14 186.498 1017.94 230.418C1021.37 234.281 1025.33 237.957 1029.86 241.466C1050.87 257.735 1084.21 270.437 1133.48 281.225L1291.77 314.908C1386.99 335.22 1457.04 365.284 1503.29 407.997C1549.59 450.748 1571.95 506.088 1571.95 576.717V577.581C1571.95 579.447 1571.93 581.306 1571.9 583.159C1579.4 606.945 1583.1 633.087 1583.1 661.776V662.639C1583.1 850.922 1409.24 973.565 1165.31 973.565C906.676 973.565 759.627 857.831 741.462 694.595L740.597 691.141ZM752.666 195.834C752.666 226.053 756.711 253.864 764.818 279.301C765.249 100.923 924.299 -17.9419 1161.85 -17.9419C1365.41 -17.9419 1494.98 64.5255 1541.69 177.697H1547.46H1548.46V176.697V174.242C1538.08 21.3702 1399.68 -103 1149.7 -103C911.825 -103 752.666 16.1881 752.666 194.97V195.834ZM1011.34 264.482C1011.34 252.633 1013.48 241.586 1017.53 231.45C1037.1 253.247 1073.64 269.145 1133.26 282.202L1291.56 315.886C1481.86 356.479 1570.95 435.937 1570.95 576.717V577.581C1570.95 578.452 1570.95 579.322 1570.94 580.191C1540.71 489.01 1453.61 432.919 1303.71 400.944L1145.41 367.26C1046.81 345.668 1011.34 316.303 1011.34 265.346V264.482ZM-345 888.761V889.761H-344H-331.849V973.819H-148.02V305.158H-134.352L118.498 973.819H247.656L500.507 305.158H501.023V888.761V889.761H502.023H514.174V973.819H698.003V-8.74425H686.852V-93.8024V-94.8024H685.852H449.403H448.712L448.468 -94.1561L176.727 624.246H165.808L-106.616 -94.1569L-106.861 -94.8024H-107.551H-344H-345V-93.8024V888.761ZM685.852 -8.74425V-92.8024V-93.8024H684.852H449.403L177.418 625.246H165.117L-107.551 -93.8024H-343H-344V-92.8024V887.761V888.761H-343H-331.849V-8.74425H-95.3998L177.268 710.304H189.569L461.554 -8.74425H685.852ZM514.174 888.761V305.158H502.023V887.761V888.761H503.023H514.174Z" fill="white"/>
</svg>
