<svg width="20" height="20" viewBox="0 0 20 20" fill="none" xmlns="http://www.w3.org/2000/svg">
<path d="M1.32825 1.79688L3.27825 2.13437L4.18106 12.8903C4.25325 13.7687 4.98731 14.4428 5.86856 14.44H16.0957C16.9367 14.4419 17.6501 13.8231 17.7692 12.9906L18.6589 6.8425C18.7582 6.15531 18.2811 5.51781 17.5948 5.41844C17.5348 5.41 3.59137 5.40531 3.59137 5.40531" stroke="white" stroke-width="2" stroke-linecap="round" stroke-linejoin="round"/>
<path d="M11.9923 8.87012H14.592" stroke="white" stroke-width="2" stroke-linecap="round" stroke-linejoin="round"/>
<path fill-rule="evenodd" clip-rule="evenodd" d="M5.45727 17.6895C5.73945 17.6895 5.96727 17.9182 5.96727 18.1995C5.96727 18.4816 5.73945 18.7104 5.45727 18.7104C5.17508 18.7104 4.94727 18.4816 4.94727 18.1995C4.94727 17.9182 5.17508 17.6895 5.45727 17.6895Z" fill="white" stroke="white" stroke-width="2" stroke-linecap="round" stroke-linejoin="round"/>
<path fill-rule="evenodd" clip-rule="evenodd" d="M16.0326 17.6895C16.3148 17.6895 16.5435 17.9182 16.5435 18.1995C16.5435 18.4816 16.3148 18.7104 16.0326 18.7104C15.7504 18.7104 15.5226 18.4816 15.5226 18.1995C15.5226 17.9182 15.7504 17.6895 16.0326 17.6895Z" fill="white" stroke="white" stroke-width="2" stroke-linecap="round" stroke-linejoin="round"/>
</svg>
