<svg width="18" height="14" viewBox="0 0 18 14" fill="none" xmlns="http://www.w3.org/2000/svg">
<path d="M7.13382 8.97226C6.65465 8.49393 6.36299 7.84393 6.36299 7.11476C6.36299 5.65393 7.53965 4.47643 8.99965 4.47643C9.72215 4.47643 10.3872 4.76893 10.858 5.24726" stroke="white" stroke-width="1.5" stroke-linecap="round" stroke-linejoin="round"/>
<path d="M11.5873 7.58234C11.394 8.65734 10.5473 9.50568 9.47315 9.70068" stroke="white" stroke-width="1.5" stroke-linecap="round" stroke-linejoin="round"/>
<path d="M4.54549 11.5602C3.22299 10.5218 2.10299 9.00518 1.29132 7.11434C2.11132 5.21518 3.23882 3.69018 4.56965 2.64351C5.89215 1.59684 7.41799 1.02851 8.99965 1.02851C10.5905 1.02851 12.1155 1.60518 13.4463 2.65934" stroke="white" stroke-width="1.5" stroke-linecap="round" stroke-linejoin="round"/>
<path d="M15.2063 4.49226C15.7797 5.25393 16.2838 6.13309 16.708 7.11393C15.0688 10.9114 12.1722 13.1989 8.99965 13.1989C8.28049 13.1989 7.57132 13.0823 6.88965 12.8548" stroke="white" stroke-width="1.5" stroke-linecap="round" stroke-linejoin="round"/>
</svg>
