<svg width="31" height="34" viewBox="0 0 31 34" fill="none" xmlns="http://www.w3.org/2000/svg">
<path fill-rule="evenodd" clip-rule="evenodd" d="M22.8515 1.61452L22.8531 2.8639C27.4442 3.22372 30.4769 6.35215 30.4819 11.1497L30.5 25.1927C30.5065 30.4234 27.2204 33.6418 21.953 33.6501L9.08647 33.6668C3.85199 33.6735 0.524694 30.3785 0.518112 25.1327L0.500011 11.2547C0.493429 6.42545 3.41921 3.30534 8.01029 2.88389L8.00864 1.63451C8.00699 0.901549 8.55002 0.350158 9.27407 0.350158C9.99811 0.348492 10.5411 0.898217 10.5428 1.63118L10.5444 2.79727L20.319 2.78394L20.3173 1.61786C20.3157 0.88489 20.8587 0.335166 21.5828 0.3335C22.2903 0.331834 22.8498 0.881559 22.8515 1.61452ZM3.0358 11.7694L27.9494 11.7361V11.1531C27.8786 7.57154 26.0817 5.69248 22.8564 5.41262L22.8581 6.69532C22.8581 7.41162 22.3002 7.97967 21.5926 7.97967C20.8686 7.98134 20.3239 7.41496 20.3239 6.69865L20.3223 5.34932L10.5477 5.36265L10.5494 6.71031C10.5494 7.42828 10.008 7.99466 9.28394 7.99466C8.5599 7.99633 8.01523 7.43161 8.01523 6.71364L8.01358 5.43095C4.80477 5.75245 3.02922 7.63818 3.03416 11.2514L3.0358 11.7694ZM20.8999 19.3407V19.359C20.9163 20.1253 21.5416 20.7066 22.3002 20.69C23.0407 20.6717 23.6315 20.037 23.615 19.2707C23.5805 18.5377 22.9864 17.9397 22.2476 17.9414C21.4906 17.958 20.8982 18.5744 20.8999 19.3407ZM22.2591 26.8202C21.5021 26.8036 20.8916 26.1722 20.89 25.4059C20.8735 24.6397 21.4807 24.005 22.2377 23.9867H22.2541C23.0275 23.9867 23.6545 24.618 23.6545 25.4009C23.6561 26.1839 23.0308 26.8186 22.2591 26.8202ZM14.1202 19.3673C14.1531 20.1336 14.7801 20.7316 15.537 20.6983C16.2775 20.6633 16.8683 20.0303 16.8354 19.264C16.8173 18.5144 16.2084 17.9314 15.4679 17.933C14.711 17.9663 14.1186 18.601 14.1202 19.3673ZM15.5436 26.7453C14.7867 26.7786 14.1613 26.1806 14.1268 25.4143C14.1268 24.648 14.7175 24.015 15.4745 23.98C16.215 23.9783 16.8255 24.5614 16.8419 25.3093C16.8765 26.0773 16.2841 26.7103 15.5436 26.7453ZM7.34055 19.4256C7.37346 20.1919 8.00042 20.7916 8.75737 20.7566C9.49786 20.7233 10.0886 20.0886 10.0541 19.3223C10.0376 18.5727 9.42875 17.9897 8.68661 17.9913C7.92966 18.0246 7.33891 18.6593 7.34055 19.4256ZM8.76395 26.7536C8.007 26.7886 7.38169 26.1889 7.34713 25.4226C7.34549 24.6563 7.93789 24.0216 8.69484 23.9883C9.43533 23.9867 10.0458 24.5697 10.0623 25.3193C10.0968 26.0856 9.50609 26.7203 8.76395 26.7536Z" fill="#3864FF"/>
</svg>
