<svg width="18" height="18" viewBox="0 0 18 18" fill="none" xmlns="http://www.w3.org/2000/svg">
<path d="M1.29102 1.70825L3.02435 2.00825L3.82685 11.5691C3.89102 12.3499 4.54352 12.9491 5.32685 12.9466H14.4177C15.1652 12.9483 15.7994 12.3983 15.9052 11.6583L16.696 6.19325C16.7843 5.58242 16.3602 5.01575 15.7502 4.92742C15.6968 4.91992 3.30268 4.91575 3.30268 4.91575" stroke="#3864FF" stroke-width="1.5" stroke-linecap="round" stroke-linejoin="round"/>
<path d="M10.7695 7.99566H13.0804" stroke="#3864FF" stroke-width="1.5" stroke-linecap="round" stroke-linejoin="round"/>
<path fill-rule="evenodd" clip-rule="evenodd" d="M4.96115 15.8354C5.21198 15.8354 5.41448 16.0388 5.41448 16.2888C5.41448 16.5396 5.21198 16.7429 4.96115 16.7429C4.71031 16.7429 4.50781 16.5396 4.50781 16.2888C4.50781 16.0388 4.71031 15.8354 4.96115 15.8354Z" fill="#3864FF" stroke="#3864FF" stroke-width="1.5" stroke-linecap="round" stroke-linejoin="round"/>
<path fill-rule="evenodd" clip-rule="evenodd" d="M14.3615 15.8354C14.6124 15.8354 14.8157 16.0388 14.8157 16.2888C14.8157 16.5396 14.6124 16.7429 14.3615 16.7429C14.1107 16.7429 13.9082 16.5396 13.9082 16.2888C13.9082 16.0388 14.1107 15.8354 14.3615 15.8354Z" fill="#3864FF" stroke="#3864FF" stroke-width="1.5" stroke-linecap="round" stroke-linejoin="round"/>
</svg>
