<svg width="34" height="34" viewBox="0 0 34 34" fill="none" xmlns="http://www.w3.org/2000/svg">
<path d="M1.27433 1.30347C2.108 0.447826 3.34184 0.129058 4.49231 0.464604L31.32 8.26604C32.5338 8.60326 33.3941 9.57131 33.6259 10.8011C33.8627 12.0527 33.0357 13.6415 31.9552 14.3059L23.5668 19.4615C22.7064 19.99 21.596 19.8575 20.884 19.1394L11.2784 9.474C10.7949 8.97068 9.99457 8.97068 9.51104 9.474C9.0275 9.96054 9.0275 10.7491 9.51104 11.2524L19.1333 20.9195C19.8469 21.6358 19.9803 22.7515 19.4551 23.6172L14.3297 32.0898C13.7294 33.0964 12.6957 33.6668 11.5619 33.6668C11.4285 33.6668 11.2784 33.6668 11.145 33.6501C9.84451 33.4823 8.81075 32.5931 8.42726 31.3348L0.474003 4.54148C0.123859 3.40063 0.440655 2.15911 1.27433 1.30347" fill="#3864FF"/>
</svg>
