<svg width="33" height="32" viewBox="0 0 33 32" fill="none" xmlns="http://www.w3.org/2000/svg">
<g clip-path="url(#clip0_304_11054)">
<path d="M24.2565 21.8324L24.2565 21.8324L24.256 21.8328C23.6777 22.4111 23.3536 23.166 23.3536 23.9756C23.3536 24.7846 23.6709 25.5399 24.2565 26.1188L24.2569 26.1192C24.8419 26.6908 25.6031 27.0078 26.4119 27.0078C28.0709 27.0078 29.418 25.6459 29.418 23.9756C29.418 22.3053 28.0709 20.9434 26.4119 20.9434C25.6034 20.9434 24.8354 21.2602 24.2565 21.8324ZM26.4119 25.5046C25.5663 25.5046 24.8568 24.805 24.8568 23.9756C24.8568 23.1462 25.5663 22.4466 26.4119 22.4466C27.2412 22.4466 27.9148 23.13 27.9148 23.9756C27.9148 24.8211 27.2412 25.5046 26.4119 25.5046Z" fill="black" stroke="black" stroke-width="0.2"/>
<path d="M29.1961 12.9676L29.1959 12.9674L27.2354 11.2024C27.0985 11.0735 26.9175 11.0065 26.7311 11.0065H23.3884C22.9748 11.0065 22.6368 11.3445 22.6368 11.7581V17.1012C22.6368 17.5148 22.9748 17.8528 23.3884 17.8528H28.6924C29.106 17.8528 29.444 17.5148 29.444 17.1012V13.5239C29.444 13.313 29.3537 13.1102 29.1961 12.9676ZM27.9408 16.3496H24.14V12.5032H26.4386L27.9408 13.8552V16.3496Z" fill="black" stroke="black" stroke-width="0.2"/>
<path d="M8.34435 21.8324L8.34435 21.8324L8.34394 21.8328C7.7656 22.4111 7.4415 23.166 7.4415 23.9756C7.4415 24.7846 7.75874 25.5399 8.34434 26.1188L8.34476 26.1192C8.92981 26.6908 9.69099 27.0078 10.4998 27.0078C12.1588 27.0078 13.5059 25.6459 13.5059 23.9756C13.5059 22.3053 12.1588 20.9434 10.4998 20.9434C9.69132 20.9434 8.9233 21.2602 8.34435 21.8324ZM10.4998 25.5046C9.65424 25.5046 8.9447 24.805 8.9447 23.9756C8.9447 23.1462 9.65424 22.4466 10.4998 22.4466C11.3291 22.4466 12.0027 23.13 12.0027 23.9756C12.0027 24.8211 11.3291 25.5046 10.4998 25.5046Z" fill="black" stroke="black" stroke-width="0.2"/>
<path d="M6.15344 21.7448H4.94372V20.1116C4.94372 19.698 4.60573 19.36 4.19213 19.36C3.77852 19.36 3.44053 19.698 3.44053 20.1116V22.4964C3.44053 22.91 3.77852 23.248 4.19213 23.248H6.15344C6.56704 23.248 6.90504 22.91 6.90504 22.4964C6.90504 22.0828 6.56704 21.7448 6.15344 21.7448Z" fill="black" stroke="black" stroke-width="0.2"/>
<path d="M9.55709 18.2936C9.55709 17.88 9.2191 17.542 8.80549 17.542H0.901599C0.487991 17.542 0.15 17.88 0.15 18.2936C0.15 18.7072 0.487991 19.0452 0.901599 19.0452H8.80549C9.21844 19.0452 9.55709 18.7144 9.55709 18.2936Z" fill="black" stroke="black" stroke-width="0.2"/>
<path d="M10.1282 16.087H10.1276L2.22429 16.0414C2.22419 16.0414 2.22409 16.0414 2.22399 16.0414L2.22371 16.0414L2.22429 15.9414L10.1282 16.087ZM10.1282 16.087C10.5408 16.087 10.8788 15.7569 10.8863 15.3437L10.8863 15.3437L10.1282 16.087ZM2.2379 14.5382V14.5382L10.1412 14.5838C10.1413 14.5838 10.1414 14.5838 10.1415 14.5838L10.1418 14.5838L10.1412 14.6838L2.2379 14.5382ZM2.2379 14.5382H2.23732M2.2379 14.5382H2.23732M2.23732 14.5382H2.23728M2.23732 14.5382H2.23728M2.23728 14.5382H2.23725M2.23728 14.5382H2.23725M2.23725 14.5382H2.23721M2.23725 14.5382H2.23721M2.23721 14.5382H2.23717M2.23721 14.5382H2.23717M2.23717 14.5382H2.23713M2.23717 14.5382H2.23713M2.23713 14.5382H2.2371M2.23713 14.5382H2.2371M2.2371 14.5382H2.23706M2.2371 14.5382H2.23706M2.23706 14.5382H2.23702M2.23706 14.5382H2.23702M2.23702 14.5382H2.23699M2.23702 14.5382H2.23699M2.23699 14.5382H2.23695M2.23699 14.5382H2.23695M2.23695 14.5382H2.23691M2.23695 14.5382H2.23691M2.23691 14.5382H2.23688M2.23691 14.5382H2.23688M2.23688 14.5382H2.23684M2.23688 14.5382H2.23684M2.23684 14.5382H2.2368M2.23684 14.5382H2.2368M2.2368 14.5382H2.23677M2.2368 14.5382H2.23677M2.23677 14.5382H2.23673M2.23677 14.5382H2.23673M2.23673 14.5382H2.23669M2.23673 14.5382H2.23669M2.23669 14.5382H2.23666M2.23669 14.5382H2.23666M2.23666 14.5382H2.23662M2.23666 14.5382H2.23662M2.23662 14.5382H2.23659M2.23662 14.5382H2.23659M2.23659 14.5382H2.23655M2.23659 14.5382H2.23655M2.23655 14.5382H2.23652M2.23655 14.5382H2.23652M2.23652 14.5382H2.23648M2.23652 14.5382H2.23648M2.23648 14.5382H2.23645M2.23648 14.5382H2.23645M2.23645 14.5382H2.23641M2.23645 14.5382H2.23641M2.23641 14.5382H2.23638M2.23641 14.5382H2.23638M2.23638 14.5382H2.23635M2.23638 14.5382H2.23635M2.23635 14.5382H2.23631M2.23635 14.5382H2.23631M2.23631 14.5382H2.23628M2.23631 14.5382H2.23628M2.23628 14.5382H2.23624M2.23628 14.5382H2.23624M2.23624 14.5382H2.23621M2.23624 14.5382H2.23621M2.23621 14.5382H2.23618M2.23621 14.5382H2.23618M2.23618 14.5382H2.23614M2.23618 14.5382H2.23614M2.23614 14.5382H2.23611M2.23614 14.5382H2.23611M2.23611 14.5382H2.23608M2.23611 14.5382H2.23608M2.23608 14.5382H2.23604M2.23608 14.5382H2.23604M2.23604 14.5382H2.23601M2.23604 14.5382H2.23601M2.23601 14.5382H2.23598M2.23601 14.5382H2.23598M2.23598 14.5382H2.23594M2.23598 14.5382H2.23594M2.23594 14.5382H2.23591M2.23594 14.5382H2.23591M2.23591 14.5382H2.23588M2.23591 14.5382H2.23588M2.23588 14.5382H2.23585M2.23588 14.5382H2.23585M2.23585 14.5382H2.23581M2.23585 14.5382H2.23581M2.23581 14.5382H2.23578M2.23581 14.5382H2.23578M2.23578 14.5382H2.23575M2.23578 14.5382H2.23575M2.23575 14.5382H2.23572M2.23575 14.5382H2.23572M2.23572 14.5382H2.23569M2.23572 14.5382H2.23569M2.23569 14.5382H2.23566M2.23569 14.5382H2.23566M2.23566 14.5382H2.23563M2.23566 14.5382H2.23563M2.23563 14.5382H2.23559M2.23563 14.5382H2.23559M2.23559 14.5382H2.23556M2.23559 14.5382H2.23556M2.23556 14.5382H2.23553M2.23556 14.5382H2.23553M2.23553 14.5382H2.2355M2.23553 14.5382H2.2355M2.2355 14.5382H2.23547M2.2355 14.5382H2.23547M2.23547 14.5382H2.23544M2.23547 14.5382H2.23544M2.23544 14.5382H2.23541M2.23544 14.5382H2.23541M2.23541 14.5382H2.23538M2.23541 14.5382H2.23538M2.23538 14.5382H2.23535M2.23538 14.5382H2.23535M2.23535 14.5382H2.23532M2.23535 14.5382H2.23532M2.23532 14.5382H2.23529M2.23532 14.5382H2.23529M2.23529 14.5382H2.23526M2.23529 14.5382H2.23526M2.23526 14.5382H2.23523M2.23526 14.5382H2.23523M2.23523 14.5382H2.2352M2.23523 14.5382H2.2352M2.2352 14.5382H2.23517M2.2352 14.5382H2.23517M2.23517 14.5382H2.23514M2.23517 14.5382H2.23514M2.23514 14.5382H2.23511M2.23514 14.5382H2.23511M2.23511 14.5382H2.23508M2.23511 14.5382H2.23508M2.23508 14.5382H2.23506M2.23508 14.5382H2.23506M2.23506 14.5382H2.23503M2.23506 14.5382H2.23503M2.23503 14.5382H2.235M2.23503 14.5382H2.235M2.235 14.5382H2.23497M2.235 14.5382H2.23497M2.23497 14.5382H2.23494M2.23497 14.5382H2.23494M2.23494 14.5382H2.23491M2.23494 14.5382H2.23491M2.23491 14.5382H2.23489M2.23491 14.5382H2.23489M2.23489 14.5382H2.23486M2.23489 14.5382H2.23486M2.23486 14.5382H2.23483M2.23486 14.5382H2.23483M2.23483 14.5382H2.2348M2.23483 14.5382H2.2348M2.2348 14.5382H2.23478M2.2348 14.5382H2.23478M2.23478 14.5382H2.23475M2.23478 14.5382H2.23475M2.23475 14.5382H2.23472M2.23475 14.5382H2.23472M2.23472 14.5382H2.23469M2.23472 14.5382H2.23469M2.23469 14.5382H2.23467M2.23469 14.5382H2.23467M2.23467 14.5382H2.23464M2.23467 14.5382H2.23464M2.23464 14.5382H2.23461M2.23464 14.5382H2.23461M2.23461 14.5382H2.23459M2.23461 14.5382H2.23459M2.23459 14.5382H2.23456M2.23459 14.5382H2.23456M2.23456 14.5382H2.23453M2.23456 14.5382H2.23453M2.23453 14.5382H2.23451M2.23453 14.5382H2.23451M2.23451 14.5382H2.23448M2.23451 14.5382H2.23448M2.23448 14.5382H2.23446M2.23448 14.5382H2.23446M2.23446 14.5382H2.23443M2.23446 14.5382H2.23443M2.23443 14.5382H2.2344M2.23443 14.5382H2.2344M2.2344 14.5382H2.23438M2.2344 14.5382H2.23438M2.23438 14.5382H2.23435M2.23438 14.5382H2.23435M2.23435 14.5382H2.23433M2.23435 14.5382H2.23433M2.23433 14.5382H2.2343M2.23433 14.5382H2.2343M2.2343 14.5382H2.23428M2.2343 14.5382H2.23428M2.23428 14.5382H2.23425M2.23428 14.5382H2.23425M2.23425 14.5382H2.23423M2.23425 14.5382H2.23423M2.23423 14.5382H2.2342M2.23423 14.5382H2.2342M2.2342 14.5382H2.23418M2.2342 14.5382H2.23418M2.23418 14.5382H2.23415M2.23418 14.5382H2.23415M2.23415 14.5382H2.23413M2.23415 14.5382H2.23413M2.23413 14.5382H2.2341M2.23413 14.5382H2.2341M2.2341 14.5382H2.23408M2.2341 14.5382H2.23408M2.23408 14.5382H2.23406M2.23408 14.5382H2.23406M2.23406 14.5382H2.23403M2.23406 14.5382H2.23403M2.23403 14.5382H2.23401M2.23403 14.5382H2.23401M2.23401 14.5382H2.23398M2.23401 14.5382H2.23398M2.23398 14.5382H2.23396M2.23398 14.5382H2.23396M2.23396 14.5382H2.23394M2.23396 14.5382H2.23394M2.23394 14.5382H2.23391M2.23394 14.5382H2.23391M2.23391 14.5382H2.23389M2.23391 14.5382H2.23389M2.23389 14.5382H2.23387M2.23389 14.5382H2.23387M2.23387 14.5382H2.23384M2.23387 14.5382H2.23384M2.23384 14.5382H2.23382M2.23384 14.5382H2.23382M2.23382 14.5382H2.2338M2.23382 14.5382H2.2338M2.2338 14.5382H2.23378M2.2338 14.5382H2.23378M2.23378 14.5382H2.23375M2.23378 14.5382H2.23375M2.23375 14.5382H2.23373M2.23375 14.5382H2.23373M2.23373 14.5382H2.23371M2.23373 14.5382H2.23371M2.23371 14.5382H2.23369M2.23371 14.5382H2.23369M2.23369 14.5382H2.23366M2.23369 14.5382H2.23366M2.23366 14.5382H2.23364M2.23366 14.5382H2.23364M2.23364 14.5382H2.23362M2.23364 14.5382H2.23362M2.23362 14.5382H2.2336M2.23362 14.5382H2.2336M2.2336 14.5382H2.23358M2.2336 14.5382H2.23358M2.23358 14.5382H2.23356M2.23358 14.5382H2.23356M2.23356 14.5382H2.23353M2.23356 14.5382H2.23353M2.23353 14.5382H2.23351M2.23353 14.5382H2.23351M2.23351 14.5382H2.23349M2.23351 14.5382H2.23349M2.23349 14.5382H2.23347M2.23349 14.5382H2.23347M2.23347 14.5382H2.23345M2.23347 14.5382H2.23345M2.23345 14.5382H2.23343M2.23345 14.5382H2.23343M2.23343 14.5382H2.23341M2.23343 14.5382H2.23341M2.23341 14.5382H2.23339M2.23341 14.5382H2.23339M2.23339 14.5382H2.23337M2.23339 14.5382H2.23337M2.23337 14.5382H2.23335M2.23337 14.5382H2.23335M2.23335 14.5382H2.23333M2.23335 14.5382H2.23333M2.23333 14.5382H2.23331M2.23333 14.5382H2.23331M2.23331 14.5382H2.23329M2.23331 14.5382H2.23329M2.23329 14.5382H2.23327M2.23329 14.5382H2.23327M2.23327 14.5382H2.23325M2.23327 14.5382H2.23325M2.23325 14.5382H2.23323M2.23325 14.5382H2.23323M2.23323 14.5382H2.23321M2.23323 14.5382H2.23321M2.23321 14.5382H2.23319M2.23321 14.5382H2.23319M2.23319 14.5382H2.23317M2.23319 14.5382H2.23317M2.23317 14.5382H2.23315M2.23317 14.5382H2.23315M2.23315 14.5382H2.23313M2.23315 14.5382H2.23313M2.23313 14.5382H2.23311M2.23313 14.5382H2.23311M2.23311 14.5382H2.23309M2.23311 14.5382H2.23309M2.23309 14.5382H2.23307M2.23309 14.5382H2.23307M2.23307 14.5382H2.23305M2.23307 14.5382H2.23305M2.23305 14.5382H2.23303M2.23305 14.5382H2.23303M2.23303 14.5382H2.23302M2.23303 14.5382H2.23302M2.23302 14.5382H2.233M2.23302 14.5382H2.233M2.233 14.5382H2.23298M2.233 14.5382H2.23298M2.23298 14.5382H2.23296M2.23298 14.5382H2.23296M2.23296 14.5382H2.23294M2.23296 14.5382H2.23294M2.23294 14.5382H2.23292M2.23294 14.5382H2.23292M2.23292 14.5382H2.23291M2.23292 14.5382H2.23291M2.23291 14.5382H2.23289M2.23291 14.5382H2.23289M2.23289 14.5382H2.23287M2.23289 14.5382H2.23287M2.23287 14.5382H2.23285M2.23287 14.5382H2.23285M2.23285 14.5382H2.23284M2.23285 14.5382H2.23284M2.23284 14.5382H2.23282M2.23284 14.5382H2.23282M2.23282 14.5382H2.2328M2.23282 14.5382H2.2328M2.2328 14.5382H2.23278M2.2328 14.5382H2.23278M2.23278 14.5382H2.23277M2.23278 14.5382H2.23277M2.23277 14.5382H2.23275M2.23277 14.5382H2.23275M2.23275 14.5382H2.23273M2.23275 14.5382H2.23273M2.23273 14.5382H2.23271M2.23273 14.5382H2.23271M2.23271 14.5382H2.2327M2.23271 14.5382H2.2327M2.2327 14.5382H2.23268M2.2327 14.5382H2.23268M2.23268 14.5382H2.23266M2.23268 14.5382H2.23266M2.23266 14.5382H2.23265M2.23266 14.5382H2.23265M2.23265 14.5382H2.23263M2.23265 14.5382H2.23263M2.23263 14.5382H2.23262M2.23263 14.5382H2.23262M2.23262 14.5382H2.2326M2.23262 14.5382H2.2326M2.2326 14.5382H2.23258M2.2326 14.5382H2.23258M2.23258 14.5382H2.23257M2.23258 14.5382H2.23257M2.23257 14.5382H2.23255M2.23257 14.5382H2.23255M2.23255 14.5382H2.23254M2.23255 14.5382H2.23254M2.23254 14.5382H2.23252M2.23254 14.5382H2.23252M2.23252 14.5382H2.2325M2.23252 14.5382H2.2325M2.2325 14.5382H2.23249M2.2325 14.5382H2.23249M2.23249 14.5382H2.23247M2.23249 14.5382H2.23247M2.23247 14.5382H2.23246M2.23247 14.5382H2.23246M2.23246 14.5382H2.23244M2.23246 14.5382H2.23244M2.23244 14.5382H2.23243M2.23244 14.5382H2.23243M2.23243 14.5382H2.23241M2.23243 14.5382H2.23241M2.23241 14.5382H2.2324M2.23241 14.5382H2.2324M2.2324 14.5382H2.23238M2.2324 14.5382H2.23238M2.23238 14.5382H2.23237M2.23238 14.5382H2.23237M2.23237 14.5382H2.23235M2.23237 14.5382H2.23235M2.23235 14.5382H2.23234M2.23235 14.5382H2.23234M2.23234 14.5382H2.23232M2.23234 14.5382H2.23232M2.23232 14.5382H2.23231M2.23232 14.5382H2.23231M2.23231 14.5382H2.2323M2.23231 14.5382H2.2323M2.2323 14.5382H2.23228M2.2323 14.5382H2.23228M2.23228 14.5382H2.23227M2.23228 14.5382H2.23227M2.23227 14.5382H2.23225M2.23227 14.5382H2.23225M2.23225 14.5382H2.23224M2.23225 14.5382H2.23224M2.23224 14.5382H2.23223M2.23224 14.5382H2.23223M2.23223 14.5382H2.23221M2.23223 14.5382H2.23221M2.23221 14.5382H2.2322M2.23221 14.5382H2.2322M2.2322 14.5382H2.23218M2.2322 14.5382H2.23218M2.23218 14.5382H2.23217M2.23218 14.5382H2.23217M2.23217 14.5382H2.23216M2.23217 14.5382H2.23216M2.23216 14.5382H2.23214M2.23216 14.5382H2.23214M2.23214 14.5382H2.23213M2.23214 14.5382H2.23213M2.23213 14.5382H2.23212M2.23213 14.5382H2.23212M2.23212 14.5382H2.2321M2.23212 14.5382H2.2321M2.2321 14.5382H2.23209M2.2321 14.5382H2.23209M2.23209 14.5382H2.23208M2.23209 14.5382H2.23208M2.23208 14.5382H2.23207M2.23208 14.5382H2.23207M2.23207 14.5382H2.23205M2.23207 14.5382H2.23205M2.23205 14.5382H2.23204M2.23205 14.5382H2.23204M2.23204 14.5382H2.23203M2.23204 14.5382H2.23203M2.23203 14.5382H2.23202M2.23203 14.5382H2.23202M2.23202 14.5382H2.232M2.23202 14.5382H2.232M2.232 14.5382H2.23199M2.232 14.5382H2.23199M2.23199 14.5382H2.23198M2.23199 14.5382H2.23198M2.23198 14.5382H2.23197M2.23198 14.5382H2.23197M2.23197 14.5382H2.23195M2.23197 14.5382H2.23195M2.23195 14.5382H2.23194M2.23195 14.5382H2.23194M2.23194 14.5382H2.23193M2.23194 14.5382H2.23193M2.23193 14.5382H2.23192M2.23193 14.5382H2.23192M2.23192 14.5382H2.23191M2.23192 14.5382H2.23191M2.23191 14.5382H2.2319M2.23191 14.5382H2.2319M2.2319 14.5382H2.23188M2.2319 14.5382H2.23188M2.23188 14.5382H2.23187M2.23188 14.5382H2.23187M2.23187 14.5382H2.23186M2.23187 14.5382H2.23186M2.23186 14.5382H2.23185M2.23186 14.5382H2.23185M2.23185 14.5382H2.23184M2.23185 14.5382H2.23184M2.23184 14.5382H2.23183M2.23184 14.5382H2.23183M2.23183 14.5382H2.23182M2.23183 14.5382H2.23182M2.23182 14.5382H2.23181M2.23182 14.5382H2.23181M2.23181 14.5382H2.23179M2.23181 14.5382H2.23179M2.23179 14.5382H2.23178M2.23179 14.5382H2.23178M2.23178 14.5382H2.23177M2.23178 14.5382H2.23177M2.23177 14.5382H2.23176M2.23177 14.5382H2.23176M2.23176 14.5382H2.23175M2.23176 14.5382H2.23175M2.23175 14.5382H2.23174M2.23175 14.5382H2.23174M2.23174 14.5382H2.23173M2.23174 14.5382H2.23173M2.23173 14.5382H2.23172M2.23173 14.5382H2.23172M2.23172 14.5382H2.23171M2.23172 14.5382H2.23171M2.23171 14.5382H2.2317M2.23171 14.5382H2.2317M2.2317 14.5382H2.23169M2.2317 14.5382H2.23169M2.23169 14.5382H2.23168M2.23169 14.5382H2.23168M2.23168 14.5382H2.23167M2.23168 14.5382H2.23167M2.23167 14.5382H2.23166M2.23167 14.5382H2.23166M2.23166 14.5382H2.23165M2.23166 14.5382H2.23165M2.23165 14.5382H2.23164M2.23165 14.5382H2.23164M2.23164 14.5382H2.23163M2.23164 14.5382H2.23163M2.23163 14.5382H2.23162M2.23163 14.5382H2.23162M2.23162 14.5382H2.23161M2.23162 14.5382H2.23161M2.23161 14.5382H2.2316M2.23161 14.5382H2.2316M2.2316 14.5382H2.23159M2.2316 14.5382H2.23159M2.23159 14.5382H2.23158M2.23159 14.5382H2.23158M2.23158 14.5382H2.23157M2.23158 14.5382H2.23157M2.23157 14.5382H2.23157M2.23157 14.5382H2.23157M2.23157 14.5382H2.23156M2.23157 14.5382H2.23156M2.23156 14.5382H2.23155M2.23156 14.5382H2.23155M2.23155 14.5382H2.23154M2.23155 14.5382H2.23154M2.23154 14.5382H2.23153M2.23154 14.5382H2.23153M2.23153 14.5382H2.23152M2.23153 14.5382H2.23152M2.23152 14.5382H2.23151M2.23152 14.5382H2.23151M2.23151 14.5382H2.2315M2.23151 14.5382H2.2315M2.2315 14.5382H2.23149M2.2315 14.5382H2.23149M2.23149 14.5382H2.23149M2.23149 14.5382H2.23149M2.23149 14.5382H2.23148M2.23149 14.5382H2.23148M2.23148 14.5382H2.23147M2.23148 14.5382H2.23147M2.23147 14.5382H2.23146M2.23147 14.5382H2.23146M2.23146 14.5382H2.23145M2.23146 14.5382H2.23145M2.23145 14.5382H2.23144M2.23145 14.5382H2.23144M2.23144 14.5382H2.23144M2.23144 14.5382H2.23144M2.23144 14.5382H2.23143M2.23144 14.5382H2.23143M2.23143 14.5382H2.23142M2.23143 14.5382H2.23142M2.23142 14.5382H2.23141M2.23142 14.5382H2.23141M2.23141 14.5382H2.23141M2.23141 14.5382H2.23141M2.23141 14.5382H2.2314M2.23141 14.5382H2.2314M2.2314 14.5382H2.23139M2.2314 14.5382H2.23139M2.23139 14.5382H2.23138M2.23139 14.5382H2.23138M2.23138 14.5382H2.23137M2.23138 14.5382H2.23137M2.23137 14.5382H2.23137M2.23137 14.5382H2.23137M2.23137 14.5382H2.23136M2.23137 14.5382H2.23136M2.23136 14.5382H2.23135M2.23136 14.5382H2.23135M2.23135 14.5382H2.23134M2.23135 14.5382H2.23134M2.23134 14.5382H2.23134M2.23134 14.5382H2.23134M2.23134 14.5382H2.23133M2.23134 14.5382H2.23133M2.23133 14.5382H2.23132M2.23133 14.5382H2.23132M2.23132 14.5382H2.23132M2.23132 14.5382H2.23132M2.23132 14.5382H2.23131M2.23132 14.5382H2.23131M2.23131 14.5382H2.2313M2.23131 14.5382H2.2313M2.2313 14.5382H2.2313M2.2313 14.5382H2.2313M2.2313 14.5382H2.23129M2.2313 14.5382H2.23129M2.23129 14.5382H2.23128M2.23129 14.5382H2.23128M2.23128 14.5382H2.23128M2.23128 14.5382H2.23128M2.23128 14.5382H2.23127M2.23128 14.5382H2.23127M2.23127 14.5382H2.23126M2.23127 14.5382H2.23126M2.23126 14.5382H2.23126M2.23126 14.5382H2.23126M2.23126 14.5382H2.23125M2.23126 14.5382H2.23125M2.23125 14.5382H2.23124M2.23125 14.5382H2.23124M2.23124 14.5382H2.23124M2.23124 14.5382H2.23124M2.23124 14.5382H2.23123M2.23124 14.5382H2.23123M2.23123 14.5382H2.23122M2.23123 14.5382H2.23122M2.23122 14.5382H2.23122M2.23122 14.5382H2.23122M2.23122 14.5382H2.23121M2.23122 14.5382H2.23121M2.23121 14.5382H2.23121M2.23121 14.5382H2.23121M2.23121 14.5382H2.2312M2.23121 14.5382H2.2312M2.2312 14.5382H2.2312M2.2312 14.5382H2.2312M2.2312 14.5382H2.23119M2.2312 14.5382H2.23119M2.23119 14.5382H2.23118M2.23119 14.5382H2.23118M2.23118 14.5382H2.23118M2.23118 14.5382H2.23118M2.23118 14.5382H2.23117M2.23118 14.5382H2.23117M2.23117 14.5382H2.23117M2.23117 14.5382H2.23117M2.23117 14.5382H2.23116M2.23117 14.5382H2.23116M2.23116 14.5382H2.23116M2.23116 14.5382H2.23116M2.23116 14.5382H2.23115M2.23116 14.5382H2.23115M2.23115 14.5382H2.23114M2.23115 14.5382H2.23114M2.23114 14.5382H2.23114M2.23114 14.5382H2.23114M2.23114 14.5382H2.23113M2.23114 14.5382H2.23113M2.23113 14.5382H2.23113M2.23113 14.5382H2.23113M2.23113 14.5382H2.23112M2.23113 14.5382H2.23112M2.23112 14.5382H2.23112M2.23112 14.5382H2.23112M2.23112 14.5382H2.23111M2.23112 14.5382H2.23111M2.23111 14.5382H2.23111M2.23111 14.5382H2.23111M2.23111 14.5382H2.2311M2.23111 14.5382H2.2311M2.2311 14.5382H2.2311M2.2311 14.5382H2.2311M2.2311 14.5382H2.23109M2.2311 14.5382H2.23109M2.23109 14.5382H2.23109M2.23109 14.5382H2.23109M2.23109 14.5382H2.23109M2.23109 14.5382H2.23109M2.23109 14.5382H2.23108M2.23109 14.5382H2.23108M2.23108 14.5382H2.23108M2.23108 14.5382H2.23108M2.23108 14.5382H2.23107M2.23108 14.5382H2.23107M2.23107 14.5382H2.23107M2.23107 14.5382H2.23107M2.23107 14.5382H2.23106M2.23107 14.5382H2.23106M2.23106 14.5382H2.23106M2.23106 14.5382H2.23106M2.23106 14.5382H2.23105M2.23106 14.5382H2.23105M2.23105 14.5382H2.23105M2.23105 14.5382H2.23105M2.23105 14.5382H2.23105M2.23105 14.5382H2.23105M2.23105 14.5382H2.23104M2.23105 14.5382H2.23104M2.23104 14.5382H2.23104M2.23104 14.5382H2.23104M2.23104 14.5382H2.23103M2.23104 14.5382H2.23103M2.23103 14.5382H2.23103M2.23103 14.5382H2.23103M2.23103 14.5382H2.23102M2.23103 14.5382H2.23102M2.23102 14.5382H2.23102M2.23102 14.5382H2.23102M2.23102 14.5382H2.23102M2.23102 14.5382H2.23102M2.23102 14.5382H2.23101M2.23102 14.5382H2.23101M2.23101 14.5382H2.23101M2.23101 14.5382H2.23101M2.23101 14.5382H2.23101M2.23101 14.5382H2.23101M2.23101 14.5382H2.231M2.23101 14.5382H2.231M2.231 14.5382H2.231M2.231 14.5382H2.231M2.231 14.5382H2.23099M2.231 14.5382H2.23099M2.23099 14.5382H2.23099M2.23099 14.5382H2.23099M2.23099 14.5382H2.23099M2.23099 14.5382H2.23099M2.23099 14.5382H2.23098M2.23099 14.5382H2.23098M2.23098 14.5382H2.23098M2.23098 14.5382H2.23098M2.23098 14.5382H2.23098M2.23098 14.5382H2.23098M2.23098 14.5382H2.23097M2.23098 14.5382H2.23097M2.23097 14.5382H2.23097M2.23097 14.5382H2.23097M2.23097 14.5382H2.23097M2.23097 14.5382H2.23097M2.23097 14.5382H2.23096M2.23097 14.5382H2.23096M2.23096 14.5382H2.23096M2.23096 14.5382H2.23096M2.23096 14.5382H2.23096M2.23096 14.5382H2.23096M2.23096 14.5382H2.23095M2.23096 14.5382H2.23095M2.23095 14.5382H2.23095M2.23095 14.5382H2.23095M2.23095 14.5382H2.23095M2.23095 14.5382H2.23095M2.23095 14.5382H2.23095M2.23095 14.5382H2.23095M2.23095 14.5382H2.23094M2.23095 14.5382H2.23094M2.23094 14.5382H2.23094M2.23094 14.5382H2.23094M2.23094 14.5382H2.23094M2.23094 14.5382H2.23094M2.23094 14.5382H2.23093M2.23094 14.5382H2.23093M2.23093 14.5382H2.23093M2.23093 14.5382H2.23093M2.23093 14.5382H2.23093M2.23093 14.5382H2.23093M2.23093 14.5382H2.23093M2.23093 14.5382H2.23093M2.23093 14.5382H2.23092M2.23093 14.5382H2.23092M2.23092 14.5382H2.23092M2.23092 14.5382H2.23092M2.23092 14.5382H2.23092M2.23092 14.5382H2.23092M2.23092 14.5382H2.23092M2.23092 14.5382H2.23092M2.23092 14.5382H2.23091M2.23092 14.5382H2.23091M2.23091 14.5382H2.23091M2.23091 14.5382H2.23091M2.23091 14.5382H2.23091M2.23091 14.5382H2.23091M2.23091 14.5382H2.23091M2.23091 14.5382H2.23091M2.23091 14.5382H2.2309M2.23091 14.5382H2.2309M2.2309 14.5382H2.2309M2.2309 14.5382H2.2309M2.2309 14.5382H2.2309M2.2309 14.5382H2.2309M2.2309 14.5382H2.2309M2.2309 14.5382H2.2309M2.2309 14.5382H2.23089M2.2309 14.5382H2.23089M2.23089 14.5382H2.23089M2.23089 14.5382H2.23089M2.23089 14.5382H2.23089M2.23089 14.5382H2.23089M2.23089 14.5382H2.23089M2.23089 14.5382H2.23089M2.23089 14.5382H2.23089M2.23089 14.5382H2.23089M2.23089 14.5382H2.23088M2.23089 14.5382H2.23088M2.23088 14.5382H2.23088M2.23088 14.5382H2.23088M2.23088 14.5382H2.23088M2.23088 14.5382H2.23088M2.23088 14.5382H2.23088M2.23088 14.5382H2.23088M2.23088 14.5382H2.23088M2.23088 14.5382H2.23088M2.23088 14.5382H2.23087M2.23088 14.5382H2.23087M2.23087 14.5382H2.23087M2.23087 14.5382H2.23087M2.23087 14.5382H2.23087M2.23087 14.5382H2.23087M2.23087 14.5382H2.23087M2.23087 14.5382H2.23087M2.23087 14.5382H2.23087M2.23087 14.5382H2.23087M2.23087 14.5382H2.23087M2.23087 14.5382H2.23087M2.23087 14.5382H2.23086M2.23087 14.5382H2.23086M2.23086 14.5382H2.23086M2.23086 14.5382H2.23086M2.23086 14.5382H2.23086M2.23086 14.5382H2.23086M2.23086 14.5382H2.23086M2.23086 14.5382H2.23086M2.23086 14.5382H2.23086M2.23086 14.5382H2.23086M2.23086 14.5382H2.23086M2.23086 14.5382H2.23086M2.23086 14.5382H2.23086M2.23086 14.5382H2.23086M2.23086 14.5382H2.23085M2.23086 14.5382H2.23085M2.23085 14.5382H2.23085M2.23085 14.5382H2.23085M2.23085 14.5382H2.23085M2.23085 14.5382H2.23085M2.23085 14.5382H2.23085M2.23085 14.5382H2.23085M2.23085 14.5382H2.23085M2.23085 14.5382H2.23085M2.23085 14.5382H2.23085M2.23085 14.5382H2.23085M2.23085 14.5382H2.23085M2.23085 14.5382H2.23085M2.23085 14.5382H2.23084M2.23085 14.5382H2.23084M2.23084 14.5382H2.23084M2.23084 14.5382H2.23084M2.23084 14.5382H2.23084M2.23084 14.5382H2.23084M2.23084 14.5382H2.23084M2.23084 14.5382H2.23084M2.23084 14.5382H2.23084M2.23084 14.5382H2.23084M2.23084 14.5382H2.23084M2.23084 14.5382H2.23084M2.23084 14.5382H2.23084M2.23084 14.5382H2.23084M2.23084 14.5382H2.23084M2.23084 14.5382H2.23084M2.23084 14.5382H2.23084M2.23084 14.5382H2.23084M2.23084 14.5382H2.23083M2.23084 14.5382H2.23083M2.23083 14.5382H2.23083M2.23083 14.5382H2.23083M2.23083 14.5382H2.23083M2.23083 14.5382H2.23083M2.23083 14.5382H2.23083M2.23083 14.5382H2.23083M2.23083 14.5382H2.23083M2.23083 14.5382H2.23083M2.23083 14.5382H2.23083M2.23083 14.5382H2.23083M2.23083 14.5382H2.23083M2.23083 14.5382H2.23083M2.23083 14.5382H2.23083M2.23083 14.5382H2.23083M2.23083 14.5382H2.23083M2.23083 14.5382H2.23083M2.23083 14.5382H2.23083M2.23083 14.5382H2.23083M2.23083 14.5382H2.23083M2.23083 14.5382H2.23083M2.23083 14.5382H2.23082M2.23083 14.5382H2.23082M2.23082 14.5382H2.23082M2.23082 14.5382H2.23082M2.23082 14.5382H2.23082M2.23082 14.5382H2.23082M2.23082 14.5382H2.23082M2.23082 14.5382H2.23082M2.23082 14.5382H2.23082M2.23082 14.5382H2.23082M2.23082 14.5382H2.23082M2.23082 14.5382H2.23082M2.23082 14.5382H2.23082M2.23082 14.5382H2.23082M2.23082 14.5382H2.23082M2.23082 14.5382H2.23082M2.23082 14.5382H2.23082M2.23082 14.5382H2.23082M2.23082 14.5382H2.23082M2.23082 14.5382H2.23082M2.23082 14.5382H2.23082M2.23082 14.5382H2.23082M2.23082 14.5382H2.23082M2.23082 14.5382H2.23082M2.23082 14.5382H2.23082M2.23082 14.5382H2.23082M2.23082 14.5382H2.23082M2.23082 14.5382H2.23082M2.23082 14.5382H2.23082M2.23082 14.5382H2.23082M2.23082 14.5382H2.23082M2.23082 14.5382H2.23082M2.23082 14.5382H2.23082M2.23082 14.5382H2.23082M2.23082 14.5382H2.23081M2.23082 14.5382H2.23081M2.23081 14.5382H2.23081M2.23081 14.5382H2.23081M2.23081 14.5382H2.23081M2.23081 14.5382H2.23081M2.23081 14.5382H2.23081M2.23081 14.5382H2.23081M2.23081 14.5382H2.23081M2.23081 14.5382H2.23081M2.23081 14.5382H2.23081M2.23081 14.5382H2.23081M2.23081 14.5382H2.23081M2.23081 14.5382H2.23081M2.23081 14.5382H2.23081M2.23081 14.5382H2.23081M2.23081 14.5382H2.23081M2.23081 14.5382H2.23081M2.23081 14.5382H2.23081M2.23081 14.5382H2.23081M2.23081 14.5382H2.23081M2.23081 14.5382H2.23081M2.23081 14.5382H2.23081M2.23081 14.5382H2.23081M2.23081 14.5382H2.23081M2.23081 14.5382H2.23081M2.23081 14.5382H2.23081M2.23081 14.5382H2.23081M2.23081 14.5382C1.81881 14.5382 1.4797 14.8679 1.47921 15.2824L2.23081 14.5382Z" fill="black" stroke="black" stroke-width="0.2"/>
<path d="M3.55345 13.0831H11.4573C11.871 13.0831 12.2089 12.7451 12.2089 12.3315C12.2089 11.9179 11.871 11.5799 11.4573 11.5799H3.55345C3.13985 11.5799 2.80186 11.9179 2.80186 12.3315C2.80186 12.7451 3.13985 13.0831 3.55345 13.0831Z" fill="black" stroke="black" stroke-width="0.2"/>
<path d="M32.35 12.6122L32.35 12.6122L32.2978 22.4899C32.2978 22.49 32.2978 22.49 32.2978 22.4901L32.2978 22.4905L32.1978 22.4899C32.1978 22.8483 31.9046 23.135 31.5462 23.135H30.2235C29.8651 23.135 29.5719 22.8418 29.5719 22.4834C29.5719 22.125 29.8651 21.8318 30.2235 21.8318L32.35 12.6122ZM32.35 12.6122L32.3499 12.6084M32.35 12.6122L32.3499 12.6084M32.3499 12.6084C32.3425 12.3872 32.2467 12.1703 32.0727 12.0264L32.3499 12.6084ZM30.8465 12.9583L30.8017 21.7318L32.0726 12.0264L27.4074 8.16265L27.3434 8.23947L27.4072 8.16246L27.4073 8.16254C27.2719 8.04977 27.1059 7.98961 26.9264 7.98961H21.5399V5.74385C21.5399 5.33025 21.2019 4.99225 20.7883 4.99225H4.19213C3.77852 4.99225 3.44053 5.33025 3.44053 5.74385V10.5136C3.44053 10.9272 3.77852 11.2652 4.19213 11.2652C4.60573 11.2652 4.94372 10.9272 4.94372 10.5136V6.49545H20.0433V21.7449H14.8001C14.3865 21.7449 14.0486 22.0828 14.0486 22.4964C14.0486 22.9101 14.3865 23.248 14.8001 23.248H22.7562C23.1698 23.248 23.5078 22.9101 23.5078 22.4964C23.5078 22.0828 23.1698 21.7449 22.7562 21.7449H21.5465V9.4928H26.6623L30.8465 12.9583ZM21.5399 8.08961H21.4399V7.98961L21.5399 8.08961Z" fill="black" stroke="black" stroke-width="0.2"/>
</g>
<defs>
<clipPath id="clip0_304_11054">
<rect width="32" height="32" fill="white" transform="translate(0.25)"/>
</clipPath>
</defs>
</svg>
