<svg width="1065" height="151" viewBox="0 0 1065 151" fill="none" xmlns="http://www.w3.org/2000/svg">
<path d="M1024.97 123.134C999.04 123.134 983.211 106.712 983.211 79.885V79.8107C983.211 53.1328 999.04 36.5612 1024.01 36.5612C1048.9 36.5612 1064.73 52.9098 1064.73 78.1758V85.7556H1009.07C1009.29 97.5712 1015.39 104.408 1025.49 104.408C1034.26 104.408 1038.8 99.3547 1039.99 97.1996L1040.13 96.9024L1064.21 96.8281L1063.99 97.7198C1061.61 107.603 1051.5 123.134 1024.97 123.134ZM1024.6 55.2878C1016.5 55.2878 1010.63 60.7126 1009.37 70.4474H1039.84C1038.57 60.5639 1032.78 55.2878 1024.6 55.2878Z" fill="#CACACA"/>
<path d="M945.826 121.202V7.50532H972.132V121.202H945.826Z" fill="#CACACA"/>
<path d="M897.221 123.134C869.948 123.134 855.383 107.975 855.383 79.8107V79.6621C855.383 51.6465 869.948 36.5612 897.221 36.5612C920.034 36.5612 933.633 48.6741 935.268 69.0355L935.194 69.1098L911.191 69.1841L911.117 69.0355C910.002 61.0841 905.395 56.5511 897.369 56.5511C887.114 56.5511 882.135 64.2052 882.135 79.6621V79.8107C882.135 95.4161 887.189 103.145 897.369 103.145C905.246 103.145 909.779 99.206 911.043 91.329L911.191 91.1804H935.194V91.4033C933.411 111.022 919.663 123.134 897.221 123.134Z" fill="#CACACA"/>
<path d="M785.078 150.407C782.105 150.407 779.133 150.407 776.16 150.333V131.012C777.646 131.086 779.801 131.086 781.956 131.086C789.834 131.086 794.367 128.337 795.184 123.506L795.556 121.203L767.317 38.4937H796.373L811.087 98.4633H812.647L827.361 38.4937H855.154L829.07 118.527C821.49 142.084 808.411 150.407 785.078 150.407Z" fill="#CACACA"/>
<path d="M714.253 124.101C682.151 124.101 662.384 102.55 662.384 67.6239V67.4753C662.384 32.5487 682.076 11.0727 714.253 11.0727C741.228 11.0727 760.921 28.3873 762.482 52.0927V53.4303H736.249L736.175 52.7615C734.615 41.5405 725.994 33.6634 714.253 33.6634C699.317 33.6634 690.176 46.445 690.176 67.401V67.5496C690.176 88.6541 699.317 101.51 714.328 101.51C726.069 101.51 734.317 94.1532 736.175 83.0807L736.324 82.2633H762.556V83.4523C760.772 107.381 741.749 124.101 714.253 124.101Z" fill="#3864FF"/>
<path d="M583.675 123.134C557.741 123.134 541.912 106.712 541.912 79.885V79.8107C541.912 53.1328 557.741 36.5612 582.709 36.5612C607.604 36.5612 623.432 52.9098 623.432 78.1758V85.7556H567.773C567.996 97.5712 574.089 104.408 584.196 104.408C592.964 104.408 597.497 99.3547 598.686 97.1996L598.835 96.9024L622.912 96.8281L622.689 97.7198C620.311 107.603 610.205 123.134 583.675 123.134ZM583.304 55.2878C575.204 55.2878 569.333 60.7126 568.07 70.4474H598.538C597.274 60.5639 591.478 55.2878 583.304 55.2878Z" fill="#3864FF"/>
<path d="M504.527 121.202V7.50532H530.833V121.202H504.527Z" fill="#3864FF"/>
<path d="M425.826 150.407C422.853 150.407 419.881 150.407 416.908 150.333V131.012C418.394 131.086 420.549 131.086 422.704 131.086C430.581 131.086 435.114 128.337 435.932 123.506L436.303 121.203L408.065 38.4937H437.121L451.835 98.4633H453.395L468.109 38.4937H495.901L469.818 118.527C462.238 142.084 449.159 150.407 425.826 150.407Z" fill="#3864FF"/>
<path d="M390.818 121.351C369.044 121.351 360.424 114.738 360.424 98.5376V57.8147H347.791V38.4937H360.424V19.5442H386.805V38.4937H403.376V57.8147H386.805V92.5926C386.805 98.8348 389.926 101.807 396.762 101.807C399.809 101.807 401.444 101.733 403.376 101.51V120.311C400.627 120.905 395.796 121.351 390.818 121.351Z" fill="#3864FF"/>
<path d="M305.725 123.134C281.202 123.134 268.346 112.434 266.712 98.0171V97.4969H292.275L292.424 97.9427C293.984 102.179 298.146 105.374 305.8 105.374C312.859 105.374 317.392 102.624 317.392 98.1657V98.0914C317.392 94.2272 314.568 91.9978 307.063 90.4373L292.795 87.6134C276.818 84.418 268.644 76.0951 268.644 63.4621V63.3878C268.644 46.8906 282.763 36.5612 304.982 36.5612C328.911 36.5612 340.949 48.4511 341.395 61.6786V62.0502H317.318L317.169 61.53C316.352 58.1116 312.265 54.2474 304.982 54.2474C298.443 54.2474 294.058 56.997 294.058 61.6043V61.7529C294.058 65.4685 296.585 67.6235 304.462 69.2584L318.73 72.0823C335.822 75.5006 343.624 82.4859 343.624 94.896V94.9703C343.624 112.136 328.167 123.134 305.725 123.134Z" fill="#3864FF"/>
<path d="M220.558 123.134C194.623 123.134 178.794 106.712 178.794 79.885V79.8107C178.794 53.1328 194.623 36.5612 219.591 36.5612C244.486 36.5612 260.314 52.9098 260.314 78.1758V85.7556H204.655C204.878 97.5712 210.971 104.408 221.078 104.408C229.846 104.408 234.38 99.3547 235.568 97.1996L235.717 96.9024L259.794 96.8281L259.571 97.7198C257.193 107.603 247.087 123.134 220.558 123.134ZM220.186 55.2878C212.086 55.2878 206.215 60.7126 204.952 70.4474H235.42C234.157 60.5639 228.36 55.2878 220.186 55.2878Z" fill="#3864FF"/>
<path d="M132.419 121.202V57.8144H119.191V38.4933H132.419V31.5823C132.419 15.0851 140.89 6.68787 163.035 6.68787C168.163 6.68787 172.175 6.98512 175.519 7.5053V24.1511C174.33 24.0025 171.878 23.7053 168.831 23.7053C160.88 23.7053 158.056 27.2722 158.056 33.663V38.4933H174.851V57.8144H158.725V121.202H132.419Z" fill="#3864FF"/>
<path d="M98.0062 27.421C90.3521 27.421 84.0356 21.4018 84.0356 13.7477C84.0356 6.09356 90.3521 0 98.0062 0C105.66 0 111.977 6.09356 111.977 13.7477C111.977 21.4018 105.66 27.421 98.0062 27.421ZM84.7787 121.202V38.4935H111.159V121.202H84.7787Z" fill="#3864FF"/>
<path d="M0.503418 121.202V13.9705H27.7758V99.2803H73.3289V121.202H0.503418Z" fill="#3864FF"/>
</svg>
