<svg width="19" height="20" viewBox="0 0 19 20" fill="none" xmlns="http://www.w3.org/2000/svg">
<path d="M16.3249 7.4682C16.3249 7.4682 15.7819 14.2032 15.4669 17.0402C15.3169 18.3952 14.4799 19.1892 13.1089 19.2142C10.4999 19.2612 7.88791 19.2642 5.27991 19.2092C3.96091 19.1822 3.13791 18.3782 2.99091 17.0472C2.67391 14.1852 2.13391 7.4682 2.13391 7.4682" stroke="#FF6B6B" stroke-width="1.5" stroke-linecap="round" stroke-linejoin="round"/>
<path d="M17.7082 4.23972H0.750244" stroke="#FF6B6B" stroke-width="1.5" stroke-linecap="round" stroke-linejoin="round"/>
<path d="M14.4407 4.2397C13.6557 4.2397 12.9797 3.6847 12.8257 2.9157L12.5827 1.6997C12.4327 1.1387 11.9247 0.750702 11.3457 0.750702H7.1127C6.5337 0.750702 6.0257 1.1387 5.8757 1.6997L5.6327 2.9157C5.4787 3.6847 4.8027 4.2397 4.0177 4.2397" stroke="#FF6B6B" stroke-width="1.5" stroke-linecap="round" stroke-linejoin="round"/>
</svg>
